# Blender v2.78 (sub 0) OBJ File: 'multiswitch_0.blend'
# www.blender.org
o LR_Button_SoftRect_2_Cube.055
v -2.000000 -0.651520 1.000000
v -1.436497 0.730967 0.718248
v -2.000000 -0.651520 -1.000000
v -1.436497 0.730967 -0.718248
v 2.000000 -0.651520 1.000000
v 1.436497 0.730967 0.718248
v 2.000000 -0.651520 -1.000000
v 1.436497 0.730967 -0.718248
v -1.894809 0.166291 0.907109
v -1.894809 0.166291 -0.907109
v 1.894809 0.166291 -0.907109
v 1.894809 0.166291 0.907109
vt 0.5754 0.5008
vt 0.7237 0.5131
vt 0.5440 0.5116
vt 0.6879 0.2973
vt 0.5408 0.2826
vt 0.7193 0.2822
vt 0.6867 0.4998
vt 0.5766 0.2984
vt 0.7488 0.2603
vt 0.7502 0.5334
vt 0.5113 0.2616
vt 0.5127 0.5317
vn -0.3320 0.8030 0.4948
vn -0.6708 0.3804 -0.6366
vn -0.6708 0.3804 0.6366
vn 0.3320 0.8030 -0.4948
vn 0.6708 0.3804 0.6366
vn 0.6708 0.3804 -0.6366
vn -0.3320 0.8030 -0.4948
vn 0.3320 0.8030 0.4948
vn 0.6999 0.1688 -0.6940
vn -0.6999 0.1688 -0.6940
vn 0.6999 0.1688 0.6940
vn -0.6999 0.1688 0.6940
s 1
f 2/1/1 10/2/2 9/3/3
f 8/4/4 12/5/5 11/6/6
f 4/7/7 11/6/6 10/2/2
f 8/4/4 2/1/1 6/8/8
f 6/8/8 9/3/3 12/5/5
f 10/2/2 7/9/9 3/10/10
f 11/6/6 5/11/11 7/9/9
f 12/5/5 1/12/12 5/11/11
f 9/3/3 3/10/10 1/12/12
f 2/1/1 4/7/7 10/2/2
f 8/4/4 6/8/8 12/5/5
f 4/7/7 8/4/4 11/6/6
f 8/4/4 4/7/7 2/1/1
f 6/8/8 2/1/1 9/3/3
f 10/2/2 11/6/6 7/9/9
f 11/6/6 12/5/5 5/11/11
f 12/5/5 9/3/3 1/12/12
f 9/3/3 10/2/2 3/10/10
