# Blender v2.78 (sub 0) OBJ File: 'multiswitch_0.blend'
# www.blender.org
o LR_Button_HardRect_3_Cube.053
v -1.999319 -0.651520 0.500000
v -1.758992 0.651520 0.273517
v -1.999319 -0.651520 -0.500000
v -1.758992 0.651520 -0.273517
v 1.999319 -0.651520 0.500000
v 1.758992 0.651520 0.273517
v 1.999319 -0.651520 -0.500000
v 1.758992 0.651520 -0.273517
vt 0.9202 0.0558
vt 0.7707 0.0217
vt 0.9834 0.0206
vt 0.9189 0.1951
vt 0.7706 0.2312
vt 0.8285 0.1956
vt 0.9827 0.2308
vt 0.8286 0.0554
vn 0.5235 0.6689 -0.5277
vn 0.6874 0.2456 0.6835
vn 0.6874 0.2456 -0.6835
vn -0.5235 0.6689 -0.5277
vn -0.6874 0.2456 0.6835
vn -0.5235 0.6689 0.5277
vn -0.6874 0.2456 -0.6835
vn 0.5235 0.6689 0.5277
s 1
f 8/1/1 5/2/2 7/3/3
f 4/4/4 1/5/5 2/6/6
f 8/1/1 3/7/7 4/4/4
f 2/6/6 5/2/2 6/8/8
f 6/8/8 4/4/4 2/6/6
f 8/1/1 6/8/8 5/2/2
f 4/4/4 3/7/7 1/5/5
f 8/1/1 7/3/3 3/7/7
f 2/6/6 1/5/5 5/2/2
f 6/8/8 8/1/1 4/4/4
