# Blender v2.78 (sub 0) OBJ File: 'Switch_0.blend'
# www.blender.org
o LR_Button_Circle.004
v -0.039882 -0.000000 -0.200501
v -0.113575 -0.000000 -0.169977
v -0.169976 -0.000000 -0.113575
v -0.200501 -0.000000 -0.039882
v -0.200501 -0.000000 0.039882
v -0.169976 -0.000000 0.113574
v -0.113575 -0.000000 0.169976
v -0.039882 -0.000000 0.200500
v 0.039882 -0.000000 0.200500
v 0.113575 -0.000000 0.169976
v 0.169976 -0.000000 0.113574
v 0.200501 -0.000000 0.039882
v 0.200501 -0.000000 -0.039883
v 0.169976 -0.000000 -0.113575
v 0.113574 -0.000000 -0.169977
v 0.039882 -0.000000 -0.200501
v -0.039882 0.366669 -0.200501
v -0.113575 0.366669 -0.169977
v -0.169976 0.366669 -0.113575
v -0.200501 0.366669 -0.039882
v -0.200501 0.366669 0.039882
v -0.169976 0.366669 0.113574
v -0.113575 0.366669 0.169976
v -0.039882 0.366669 0.200500
v 0.039882 0.366669 0.200500
v 0.113575 0.366669 0.169976
v 0.169976 0.366669 0.113574
v 0.200501 0.366669 0.039882
v 0.200501 0.366669 -0.039883
v 0.169976 0.366669 -0.113575
v 0.113574 0.366669 -0.169977
v 0.039882 0.366669 -0.200501
v -0.000000 0.426465 -0.000000
vt 0.6849 0.1993
vt 0.8269 0.1673
vt 0.8272 0.1707
vt 0.8280 0.1640
vt 0.6852 0.1392
vt 0.7083 0.0842
vt 0.8437 0.1727
vt 0.9249 0.2978
vt 0.8412 0.1752
vt 0.8448 0.1693
vt 0.9816 0.1378
vt 0.9817 0.1955
vt 0.8382 0.1768
vt 0.8681 0.3215
vt 0.8302 0.1613
vt 0.7506 0.0423
vt 0.9599 0.2486
vt 0.8348 0.1771
vt 0.8068 0.3215
vt 0.8333 0.1597
vt 0.8054 0.0199
vt 0.8315 0.1760
vt 0.7506 0.2981
vt 0.8368 0.1594
vt 0.8643 0.0202
vt 0.8289 0.1738
vt 0.7078 0.2551
vt 0.8401 0.1604
vt 0.9183 0.0428
vt 0.8428 0.1627
vt 0.9595 0.0842
vt 0.8358 0.1683
vt 0.8445 0.1658
vn -0.8314 0.0000 0.5556
vn -0.4579 0.5663 0.6853
vn -0.6853 0.5663 0.4579
vn -0.1608 0.5663 0.8083
vn -0.5556 0.0000 0.8314
vn -0.1951 0.0000 0.9808
vn 0.1608 0.5663 -0.8083
vn -0.1951 0.0000 -0.9808
vn -0.1608 0.5663 -0.8083
vn 0.4579 0.5663 -0.6853
vn 0.8314 0.0000 -0.5556
vn 0.5556 0.0000 -0.8314
vn -0.4579 0.5663 -0.6853
vn -0.5556 0.0000 -0.8314
vn 0.1608 0.5663 0.8083
vn 0.1951 0.0000 0.9808
vn 0.1951 0.0000 -0.9808
vn -0.6853 0.5663 -0.4579
vn -0.8314 0.0000 -0.5556
vn 0.4579 0.5663 0.6853
vn 0.5556 0.0000 0.8314
vn -0.8083 0.5663 -0.1608
vn -0.9808 0.0000 -0.1951
vn 0.6853 0.5663 0.4579
vn 0.8314 0.0000 0.5556
vn -0.8083 0.5663 0.1608
vn -0.9808 0.0000 0.1951
vn 0.8083 0.5663 0.1608
vn 0.9808 0.0000 0.1951
vn 0.8083 0.5663 -0.1608
vn 0.9808 0.0000 -0.1951
vn 0.0000 1.0000 0.0000
vn 0.6853 0.5663 -0.4579
s 1
f 6/1/1 23/2/2 22/3/3
f 24/4/4 7/5/5 8/6/6
f 32/7/7 1/8/8 17/9/9
f 31/10/10 14/11/11 15/12/12
f 18/13/13 1/8/8 2/14/14
f 25/15/15 8/6/6 9/16/16
f 32/7/7 15/12/12 16/17/17
f 19/18/18 2/14/14 3/19/19
f 26/20/20 9/16/16 10/21/21
f 20/22/22 3/19/19 4/23/23
f 27/24/24 10/21/21 11/25/25
f 21/26/26 4/23/23 5/27/27
f 28/28/28 11/25/25 12/29/29
f 22/3/3 5/27/27 6/1/1
f 29/30/30 12/29/29 13/31/31
f 18/13/13 33/32/32 17/9/9
f 25/15/15 33/32/32 24/4/4
f 32/7/7 33/32/32 31/10/10
f 31/10/10 33/32/32 30/33/33
f 19/18/18 33/32/32 18/13/13
f 26/20/20 33/32/32 25/15/15
f 32/7/7 17/9/9 33/32/32
f 20/22/22 33/32/32 19/18/18
f 27/24/24 33/32/32 26/20/20
f 21/26/26 33/32/32 20/22/22
f 28/28/28 33/32/32 27/24/24
f 21/26/26 22/3/3 33/32/32
f 29/30/30 33/32/32 28/28/28
f 23/2/2 33/32/32 22/3/3
f 30/33/33 33/32/32 29/30/30
f 24/4/4 33/32/32 23/2/2
f 30/33/33 13/31/31 14/11/11
f 6/1/1 7/5/5 23/2/2
f 24/4/4 23/2/2 7/5/5
f 32/7/7 16/17/17 1/8/8
f 31/10/10 30/33/33 14/11/11
f 18/13/13 17/9/9 1/8/8
f 25/15/15 24/4/4 8/6/6
f 32/7/7 31/10/10 15/12/12
f 19/18/18 18/13/13 2/14/14
f 26/20/20 25/15/15 9/16/16
f 20/22/22 19/18/18 3/19/19
f 27/24/24 26/20/20 10/21/21
f 21/26/26 20/22/22 4/23/23
f 28/28/28 27/24/24 11/25/25
f 22/3/3 21/26/26 5/27/27
f 29/30/30 28/28/28 12/29/29
f 30/33/33 29/30/30 13/31/31
