# Blender v2.78 (sub 0) OBJ File: 'multiswitch_0.blend'
# www.blender.org
o LR_Button_SoftRect_3_Cube.054
v -2.000000 -0.651520 0.500000
v -1.436497 0.730967 0.359124
v -2.000000 -0.651520 -0.500000
v -1.436497 0.730967 -0.359124
v 2.000000 -0.651520 0.500000
v 1.436497 0.730967 0.359124
v 2.000000 -0.651520 -0.500000
v 1.436497 0.730967 -0.359124
v -1.947254 0.166291 0.453555
v -1.947254 0.166291 -0.453555
v 1.947254 0.166291 -0.453555
v 1.947254 0.166291 0.453555
vt 0.6035 0.2118
vt 0.7098 0.2244
vt 0.5568 0.2250
vt 0.7353 0.0157
vt 0.7357 0.2357
vt 0.6537 0.0424
vt 0.5452 0.0273
vt 0.7097 0.0284
vt 0.6576 0.2104
vt 0.5145 0.2347
vt 0.5153 0.0131
vt 0.5997 0.0439
vn -0.3117 0.7657 0.5626
vn -0.6952 0.3369 -0.6349
vn -0.6952 0.3369 0.6349
vn 0.7061 0.0855 -0.7029
vn -0.7061 0.0855 -0.7029
vn 0.3117 0.7657 -0.5626
vn 0.6952 0.3369 0.6349
vn 0.6952 0.3369 -0.6349
vn -0.3117 0.7657 -0.5626
vn -0.7061 0.0855 0.7029
vn 0.7061 0.0855 0.7029
vn 0.3117 0.7657 0.5626
s 1
f 2/1/1 10/2/2 9/3/3
f 10/2/2 7/4/4 3/5/5
f 8/6/6 12/7/7 11/8/8
f 4/9/9 11/8/8 10/2/2
f 12/7/7 1/10/10 5/11/11
f 11/8/8 5/11/11 7/4/4
f 4/9/9 6/12/12 8/6/6
f 9/3/3 3/5/5 1/10/10
f 6/12/12 9/3/3 12/7/7
f 2/1/1 4/9/9 10/2/2
f 10/2/2 11/8/8 7/4/4
f 8/6/6 6/12/12 12/7/7
f 4/9/9 8/6/6 11/8/8
f 12/7/7 9/3/3 1/10/10
f 11/8/8 12/7/7 5/11/11
f 4/9/9 2/1/1 6/12/12
f 9/3/3 10/2/2 3/5/5
f 6/12/12 2/1/1 9/3/3
