# Blender v2.78 (sub 0) OBJ File: 'Switch_0.blend'
# www.blender.org
o LR_Base_Circle.005
v -0.207253 0.000000 -1.041931
v -0.590206 0.000000 -0.883306
v -0.883306 0.000000 -0.590206
v -1.041930 0.000000 -0.207253
v -1.041931 0.000000 0.207253
v -0.883306 0.000000 0.590206
v -0.590206 0.000000 0.883306
v -0.207253 0.000000 1.041931
v 0.207253 0.000000 1.041930
v 0.590207 0.000000 0.883306
v 0.883307 0.000000 0.590206
v 1.041931 0.000000 0.207252
v 1.041930 0.000000 -0.207254
v 0.883305 0.000000 -0.590207
v 0.590205 0.000000 -0.883307
v 0.207251 0.000000 -1.041931
v -0.196170 0.216194 -0.986213
v -0.558645 0.216194 -0.836071
v -0.836071 0.216194 -0.558645
v -0.986213 0.216194 -0.196170
v -0.986213 0.216194 0.196170
v -0.836071 0.216194 0.558645
v -0.558645 0.216194 0.836071
v -0.196170 0.216194 0.986213
v 0.196170 0.216194 0.986213
v 0.558645 0.216194 0.836071
v 0.836071 0.216194 0.558644
v 0.986213 0.216194 0.196169
v 0.986213 0.216194 -0.196171
v 0.836070 0.216194 -0.558646
v 0.558644 0.216194 -0.836072
v 0.196168 0.216194 -0.986213
v -0.148587 0.276237 -0.746996
v -0.423139 0.276237 -0.633272
v -0.633272 0.276237 -0.423139
v -0.746996 0.276237 -0.148587
v -0.746996 0.276237 0.148587
v -0.633272 0.276237 0.423139
v -0.423139 0.276237 0.633272
v -0.148587 0.276237 0.746996
v 0.148587 0.276237 0.746996
v 0.423139 0.276237 0.633272
v 0.633273 0.276237 0.423139
v 0.746996 0.276237 0.148586
v 0.746996 0.276237 -0.148588
v 0.633272 0.276237 -0.423140
v 0.423138 0.276237 -0.633273
v 0.148586 0.276237 -0.746996
v -0.123320 0.116159 -0.619973
v -0.351186 0.116159 -0.525588
v -0.525588 0.116159 -0.351187
v -0.619973 0.116159 -0.123320
v -0.619973 0.116159 0.123320
v -0.525588 0.116159 0.351186
v -0.351186 0.116159 0.525587
v -0.123320 0.116159 0.619973
v 0.123320 0.116159 0.619973
v 0.351187 0.116159 0.525587
v 0.525588 0.116159 0.351186
v 0.619973 0.116159 0.123320
v 0.619973 0.116159 -0.123321
v 0.525587 0.116159 -0.351187
v 0.351186 0.116159 -0.525588
v 0.123319 0.116159 -0.619973
v -0.000000 0.099314 -0.000000
vt 0.0310 0.4913
vt 0.1405 0.3798
vt 0.0884 0.5044
vt 0.2360 0.2848
vt 0.0926 0.3458
vt 0.2048 0.2352
vt 0.6254 0.8566
vt 0.5151 0.9731
vt 0.5006 0.9096
vt 0.7163 0.7590
vt 0.8211 0.6479
vt 0.7630 0.7905
vt 0.3633 0.9135
vt 0.3502 0.9735
vt 0.3604 0.2336
vt 0.3505 0.1761
vt 0.6579 0.9005
vt 0.2014 0.9109
vt 0.4946 0.2338
vt 0.5075 0.1771
vt 0.0892 0.7970
vt 0.2362 0.8618
vt 0.6519 0.2378
vt 0.0880 0.6398
vt 0.0296 0.6496
vt 0.7619 0.3488
vt 0.6184 0.2851
vt 0.7644 0.5027
vt 0.8211 0.4928
vt 0.2582 0.6068
vt 0.3270 0.5529
vt 0.3273 0.5930
vt 0.3420 0.5158
vt 0.2580 0.5392
vt 0.2837 0.4768
vt 0.5285 0.5904
vt 0.5961 0.5369
vt 0.5969 0.6036
vt 0.3701 0.4873
vt 0.3312 0.4290
vt 0.4866 0.6565
vt 0.4644 0.7412
vt 0.4495 0.6716
vt 0.5724 0.6656
vt 0.4093 0.6727
vt 0.3961 0.7424
vt 0.4069 0.4717
vt 0.3933 0.4031
vt 0.5262 0.7137
vt 0.5140 0.6275
vt 0.3719 0.6580
vt 0.3328 0.7170
vt 0.4468 0.4714
vt 0.4604 0.4029
vt 0.2844 0.6693
vt 0.5224 0.4283
vt 0.5701 0.4753
vt 0.4837 0.4863
vt 0.4280 0.5718
vt 0.3431 0.6299
vt 0.5122 0.5141
vt 0.5278 0.5507
vt 0.7653 0.6357
vt 0.1397 0.7653
vt 0.7130 0.3796
vn -0.8042 0.2541 0.5373
vn -0.4062 0.6821 0.6080
vn -0.6080 0.6821 0.4062
vn -0.1426 0.6821 0.7172
vn -0.5373 0.2541 0.8042
vn -0.1887 0.2541 0.9486
vn 0.1426 0.6821 -0.7172
vn -0.1887 0.2541 -0.9486
vn -0.1426 0.6821 -0.7172
vn 0.4062 0.6821 -0.6080
vn 0.8042 0.2541 -0.5373
vn 0.5373 0.2541 -0.8042
vn -0.4062 0.6821 -0.6080
vn -0.5373 0.2541 -0.8042
vn 0.1426 0.6821 0.7172
vn 0.1887 0.2541 0.9486
vn 0.1887 0.2541 -0.9486
vn -0.8042 0.2541 -0.5373
vn 0.4062 0.6821 0.6080
vn 0.5373 0.2541 0.8042
vn -0.9486 0.2541 -0.1887
vn -0.6080 0.6821 -0.4062
vn 0.8042 0.2541 0.5373
vn -0.7172 0.6821 0.1426
vn -0.9486 0.2541 0.1887
vn 0.9486 0.2541 0.1887
vn 0.6080 0.6821 0.4062
vn 0.7172 0.6821 -0.1426
vn 0.9486 0.2541 -0.1887
vn 0.2514 0.9666 -0.0500
vn 0.4014 0.8757 -0.2682
vn 0.4735 0.8757 -0.0942
vn 0.2682 0.8757 -0.4014
vn 0.2131 0.9666 -0.1424
vn 0.1424 0.9666 -0.2131
vn -0.4014 0.8757 0.2682
vn -0.2514 0.9666 0.0500
vn -0.2131 0.9666 0.1424
vn 0.0942 0.8757 -0.4735
vn 0.0500 0.9666 -0.2514
vn -0.0942 0.8757 0.4735
vn 0.0500 0.9666 0.2514
vn 0.0942 0.8757 0.4735
vn -0.1424 0.9666 0.2131
vn 0.2682 0.8757 0.4014
vn 0.1424 0.9666 0.2131
vn -0.0942 0.8757 -0.4735
vn -0.0500 0.9666 -0.2514
vn -0.0500 0.9666 0.2514
vn -0.2682 0.8757 0.4014
vn 0.4014 0.8757 0.2682
vn 0.2131 0.9666 0.1424
vn -0.2682 0.8757 -0.4014
vn -0.1424 0.9666 -0.2131
vn 0.2514 0.9666 0.0500
vn -0.2131 0.9666 -0.1424
vn -0.2514 0.9666 -0.0500
vn -0.4014 0.8757 -0.2682
vn 0.0000 1.0000 0.0000
vn 0.4735 0.8757 0.0942
vn -0.4735 0.8757 -0.0942
vn -0.4735 0.8757 0.0942
vn 0.6080 0.6821 -0.4062
vn -0.7172 0.6821 -0.1426
vn 0.7172 0.6821 0.1426
s 1
f 6/1/1 23/2/2 22/3/3
f 24/4/4 7/5/5 8/6/6
f 32/7/7 1/8/8 17/9/9
f 31/10/10 14/11/11 15/12/12
f 18/13/13 1/8/8 2/14/14
f 25/15/15 8/6/6 9/16/16
f 32/7/7 15/12/12 16/17/17
f 3/18/18 18/13/13 2/14/14
f 26/19/19 9/16/16 10/20/20
f 4/21/21 19/22/22 3/18/18
f 11/23/23 26/19/19 10/20/20
f 21/24/24 4/21/21 5/25/25
f 12/26/26 27/27/27 11/23/23
f 22/3/3 5/25/25 6/1/1
f 29/28/28 12/26/26 13/29/29
f 37/30/30 54/31/31 53/32/32
f 55/33/33 38/34/34 39/35/35
f 62/36/36 45/37/37 46/38/38
f 56/39/39 39/35/35 40/40/40
f 64/41/41 33/42/42 49/43/43
f 47/44/44 62/36/36 46/38/38
f 50/45/45 33/42/42 34/46/46
f 57/47/47 40/40/40 41/48/48
f 48/49/49 63/50/50 47/44/44
f 51/51/51 34/46/46 35/52/52
f 58/53/53 41/48/48 42/54/54
f 36/55/55 51/51/51 35/52/52
f 43/56/56 58/53/53 42/54/54
f 53/32/32 36/55/55 37/30/30
f 44/57/57 59/58/58 43/56/56
f 62/36/36 63/50/50 65/59/59
f 50/45/45 51/51/51 65/59/59
f 57/47/47 58/53/53 65/59/59
f 64/41/41 49/43/43 65/59/59
f 51/51/51 52/60/60 65/59/59
f 58/53/53 59/58/58 65/59/59
f 52/60/60 53/32/32 65/59/59
f 59/58/58 60/61/61 65/59/59
f 53/32/32 54/31/31 65/59/59
f 60/61/61 61/62/62 65/59/59
f 54/31/31 55/33/33 65/59/59
f 61/62/62 62/36/36 65/59/59
f 55/33/33 56/39/39 65/59/59
f 45/37/37 60/61/61 44/57/57
f 27/27/27 42/54/54 26/19/19
f 41/48/48 26/19/19 42/54/54
f 33/42/42 32/7/7 17/9/9
f 18/13/13 35/52/52 34/46/46
f 47/44/44 32/7/7 48/49/49
f 24/4/4 41/48/48 40/40/40
f 17/9/9 34/46/46 33/42/42
f 46/38/38 31/10/10 47/44/44
f 23/2/2 40/40/40 39/35/35
f 45/37/37 30/63/63 46/38/38
f 22/3/3 39/35/35 38/34/34
f 44/57/57 29/28/28 45/37/37
f 21/24/24 38/34/34 37/30/30
f 27/27/27 44/57/57 43/56/56
f 20/64/64 37/30/30 36/55/55
f 57/47/47 65/59/59 56/39/39
f 19/22/22 36/55/55 35/52/52
f 50/45/45 65/59/59 49/43/43
f 65/59/59 63/50/50 64/41/41
f 30/63/63 13/29/29 14/11/11
f 6/1/1 7/5/5 23/2/2
f 24/4/4 23/2/2 7/5/5
f 32/7/7 16/17/17 1/8/8
f 31/10/10 30/63/63 14/11/11
f 18/13/13 17/9/9 1/8/8
f 25/15/15 24/4/4 8/6/6
f 32/7/7 31/10/10 15/12/12
f 3/18/18 19/22/22 18/13/13
f 26/19/19 25/15/15 9/16/16
f 4/21/21 20/64/64 19/22/22
f 11/23/23 27/27/27 26/19/19
f 21/24/24 20/64/64 4/21/21
f 12/26/26 28/65/65 27/27/27
f 22/3/3 21/24/24 5/25/25
f 29/28/28 28/65/65 12/26/26
f 37/30/30 38/34/34 54/31/31
f 55/33/33 54/31/31 38/34/34
f 62/36/36 61/62/62 45/37/37
f 56/39/39 55/33/33 39/35/35
f 64/41/41 48/49/49 33/42/42
f 47/44/44 63/50/50 62/36/36
f 50/45/45 49/43/43 33/42/42
f 57/47/47 56/39/39 40/40/40
f 48/49/49 64/41/41 63/50/50
f 51/51/51 50/45/45 34/46/46
f 58/53/53 57/47/47 41/48/48
f 36/55/55 52/60/60 51/51/51
f 43/56/56 59/58/58 58/53/53
f 53/32/32 52/60/60 36/55/55
f 44/57/57 60/61/61 59/58/58
f 45/37/37 61/62/62 60/61/61
f 27/27/27 43/56/56 42/54/54
f 41/48/48 25/15/15 26/19/19
f 33/42/42 48/49/49 32/7/7
f 18/13/13 19/22/22 35/52/52
f 47/44/44 31/10/10 32/7/7
f 24/4/4 25/15/15 41/48/48
f 17/9/9 18/13/13 34/46/46
f 46/38/38 30/63/63 31/10/10
f 23/2/2 24/4/4 40/40/40
f 45/37/37 29/28/28 30/63/63
f 22/3/3 23/2/2 39/35/35
f 44/57/57 28/65/65 29/28/28
f 21/24/24 22/3/3 38/34/34
f 27/27/27 28/65/65 44/57/57
f 20/64/64 21/24/24 37/30/30
f 19/22/22 20/64/64 36/55/55
f 30/63/63 29/28/28 13/29/29
