# Blender v2.78 (sub 0) OBJ File: 'multiswitch_0.blend'
# www.blender.org
o LR_Button_HardRect_1_Cube.052
v -1.332879 -0.651520 1.000000
v -1.051693 0.651520 0.714027
v -1.332879 -0.651520 -1.000000
v -1.051693 0.651520 -0.714027
v 1.332879 -0.651520 1.000000
v 1.051693 0.651520 0.714027
v 1.332879 -0.651520 -1.000000
v 1.051693 0.651520 -0.714027
vt 0.8191 0.6065
vt 0.9386 0.7184
vt 0.8218 0.7190
vt 0.9411 0.6068
vt 0.7675 0.5627
vt 0.9855 0.5627
vt 0.9858 0.7652
vt 0.7696 0.7696
vn -0.5143 0.6873 0.5129
vn 0.5143 0.6873 -0.5129
vn -0.5143 0.6873 -0.5129
vn 0.5143 0.6873 0.5129
vn -0.6752 0.2941 0.6764
vn 0.6752 0.2941 0.6764
vn 0.6752 0.2941 -0.6764
vn -0.6752 0.2941 -0.6764
s 1
f 2/1/1 8/2/2 4/3/3
f 6/4/4 1/5/5 5/6/6
f 8/2/2 5/6/6 7/7/7
f 2/1/1 3/8/8 1/5/5
f 4/3/3 7/7/7 3/8/8
f 2/1/1 6/4/4 8/2/2
f 6/4/4 2/1/1 1/5/5
f 8/2/2 6/4/4 5/6/6
f 2/1/1 4/3/3 3/8/8
f 4/3/3 8/2/2 7/7/7
