# Blender v2.78 (sub 0) OBJ File: 'multiswitch_0.blend'
# www.blender.org
o LR_Button_HardRect_2_Cube.051
v -1.999319 -0.651520 1.000000
v -1.694565 0.651520 0.703869
v -1.999319 -0.651520 -1.000000
v -1.694565 0.651520 -0.703869
v 1.999319 -0.651520 1.000000
v 1.694565 0.651520 0.703869
v 1.999319 -0.651520 -1.000000
v 1.694565 0.651520 -0.703869
vt 0.8291 0.4836
vt 0.9223 0.2997
vt 0.9221 0.4832
vt 0.7674 0.2623
vt 0.9896 0.2673
vt 0.7735 0.5305
vt 0.8292 0.3001
vt 0.9848 0.5319
vn -0.5082 0.6934 0.5108
vn 0.5082 0.6934 -0.5108
vn -0.5082 0.6934 -0.5108
vn 0.6734 0.3100 0.6711
vn 0.6734 0.3100 -0.6711
vn -0.6734 0.3100 0.6711
vn 0.5082 0.6934 0.5108
vn -0.6734 0.3100 -0.6711
s 1
f 2/1/1 8/2/2 4/3/3
f 8/2/2 5/4/4 7/5/5
f 4/3/3 1/6/6 2/1/1
f 6/7/7 1/6/6 5/4/4
f 4/3/3 7/5/5 3/8/8
f 2/1/1 6/7/7 8/2/2
f 8/2/2 6/7/7 5/4/4
f 4/3/3 3/8/8 1/6/6
f 6/7/7 2/1/1 1/6/6
f 4/3/3 8/2/2 7/5/5
