# Blender v2.78 (sub 0) OBJ File: 'multiswitch_0.blend'
# www.blender.org
o LR_Button_Circ_0_Circle.017
v -0.707107 -0.651520 -0.707107
v -0.923880 -0.651520 -0.382683
v -0.382683 -0.651520 0.923880
v 0.707107 -0.651520 0.707106
v 0.923880 -0.651520 0.382683
v 0.923879 -0.651520 -0.382684
v 0.382682 -0.651520 -0.923880
v 0.000000 0.633851 -1.000000
v -0.382683 0.633851 -0.923880
v -0.707107 0.633851 0.707107
v -0.382683 0.633851 0.923880
v 0.707106 0.633851 -0.707108
v 0.382682 0.633851 -0.923880
v -0.000000 0.633851 -0.000000
v 0.000000 -0.651520 -1.000000
v -0.382683 -0.651520 -0.923880
v -1.000000 -0.651520 -0.000000
v -0.923880 -0.651520 0.382683
v -0.707107 -0.651520 0.707107
v 0.000000 -0.651520 1.000000
v 0.382684 -0.651520 0.923879
v 1.000000 -0.651520 -0.000001
v 0.707106 -0.651520 -0.707108
v -0.707107 0.633851 -0.707107
v -0.923880 0.633851 -0.382683
v -1.000000 0.633851 -0.000000
v -0.923880 0.633851 0.382683
v 0.000000 0.633851 1.000000
v 0.382684 0.633851 0.923879
v 0.707107 0.633851 0.707106
v 0.923880 0.633851 0.382683
v 1.000000 0.633851 -0.000001
v 0.923879 0.633851 -0.382684
vt 0.1152 0.9031
vt 0.1228 0.8760
vt 0.1262 0.9039
vt 0.1507 0.8726
vt 0.1499 0.8835
vt 0.2345 0.9099
vt 0.1450 0.8934
vt 0.2390 0.8645
vt 0.0889 0.9877
vt 0.1054 0.8981
vt 0.1969 0.7857
vt 0.1473 0.8621
vt 0.1401 0.8538
vt 0.2258 0.8209
vt 0.0110 0.8421
vt 0.1006 0.8586
vt 0.0957 0.8684
vt 0.1778 0.9790
vt 0.1366 0.9005
vt 0.1090 0.8514
vt 0.1304 0.8488
vt 0.0677 0.7730
vt 0.1194 0.8480
vt 0.1567 0.7642
vt 0.0948 0.8794
vt 0.0982 0.8898
vt 0.0198 0.9310
vt 0.0487 0.9662
vt 0.1113 0.7598
vt 0.2130 0.9501
vt 0.1342 0.9922
vt 0.0325 0.8019
vt 0.0066 0.8874
vn -0.5276 0.6657 -0.5276
vn 0.0000 1.0000 0.0000
vn -0.2855 0.6657 -0.6894
vn 0.6894 0.6657 -0.2855
vn 0.5276 0.6657 -0.5276
vn 0.7071 0.0000 -0.7071
vn 0.2855 0.6657 -0.6894
vn 0.9239 0.0000 -0.3827
vn -0.7071 0.0000 -0.7071
vn -0.6894 0.6657 -0.2855
vn 0.9239 0.0000 0.3827
vn 0.7462 0.6657 0.0000
vn 0.6894 0.6657 0.2855
vn 1.0000 0.0000 0.0000
vn -0.7071 0.0000 0.7071
vn -0.2855 0.6657 0.6894
vn -0.5276 0.6657 0.5276
vn 0.0000 0.0000 -1.0000
vn 0.0000 0.6657 -0.7462
vn 0.0000 0.6657 0.7462
vn 0.5276 0.6657 0.5276
vn 0.0000 0.0000 1.0000
vn 0.2855 0.6657 0.6894
vn 0.7071 0.0000 0.7071
vn -0.6894 0.6657 0.2855
vn -0.7462 0.6657 0.0000
vn -1.0000 0.0000 0.0000
vn -0.9239 0.0000 -0.3827
vn 0.3827 0.0000 0.9239
vn 0.3827 0.0000 -0.9239
vn -0.3827 0.0000 -0.9239
vn -0.3827 0.0000 0.9239
vn -0.9239 0.0000 0.3827
s 1
f 24/1/1 14/2/2 9/3/3
f 14/2/2 33/4/4 12/5/5
f 23/6/6 13/7/7 12/5/5
f 12/5/5 6/8/8 23/6/6
f 1/9/9 25/10/10 24/1/1
f 5/11/11 32/12/12 31/13/13
f 22/14/14 33/4/4 32/12/12
f 14/2/2 32/12/12 33/4/4
f 19/15/15 11/16/16 10/17/17
f 15/18/18 9/3/3 8/19/19
f 14/2/2 31/13/13 32/12/12
f 28/20/20 14/2/2 11/16/16
f 14/2/2 24/1/1 25/10/10
f 14/2/2 30/21/21 31/13/13
f 11/16/16 20/22/22 28/20/20
f 14/2/2 28/20/20 29/23/23
f 31/13/13 4/24/24 5/11/11
f 14/2/2 8/19/19 9/3/3
f 27/25/25 14/2/2 26/26/26
f 14/2/2 25/10/10 26/26/26
f 14/2/2 12/5/5 13/7/7
f 8/19/19 14/2/2 13/7/7
f 14/2/2 27/25/25 10/17/17
f 14/2/2 10/17/17 11/16/16
f 17/27/27 27/25/25 26/26/26
f 26/26/26 2/28/28 17/27/27
f 21/29/29 30/21/21 29/23/23
f 8/19/19 7/30/30 15/18/18
f 29/23/23 20/22/22 21/29/29
f 27/25/25 19/15/15 10/17/17
f 16/31/31 24/1/1 9/3/3
f 14/2/2 29/23/23 30/21/21
f 23/6/6 7/30/30 13/7/7
f 12/5/5 33/4/4 6/8/8
f 1/9/9 2/28/28 25/10/10
f 5/11/11 22/14/14 32/12/12
f 22/14/14 6/8/8 33/4/4
f 19/15/15 3/32/32 11/16/16
f 15/18/18 16/31/31 9/3/3
f 11/16/16 3/32/32 20/22/22
f 31/13/13 30/21/21 4/24/24
f 17/27/27 18/33/33 27/25/25
f 26/26/26 25/10/10 2/28/28
f 21/29/29 4/24/24 30/21/21
f 8/19/19 13/7/7 7/30/30
f 29/23/23 28/20/20 20/22/22
f 27/25/25 18/33/33 19/15/15
f 16/31/31 1/9/9 24/1/1
