# Blender v2.78 (sub 0) OBJ File: 'multiswitch_0.blend'
# www.blender.org
o LR_Button_Rect_2_Cube.060
v -1.999319 -0.651520 1.000000
v -1.999319 0.651520 1.000000
v -1.999319 -0.651520 -1.000000
v -1.999319 0.651520 -1.000000
v 1.999319 -0.651520 1.000000
v 1.999319 0.651520 1.000000
v 1.999319 -0.651520 -1.000000
v 1.999319 0.651520 -1.000000
vt 0.2974 0.3226
vt 0.4560 0.4242
vt 0.2964 0.4221
vt 0.4570 0.3247
vt 0.2553 0.2587
vt 0.4965 0.2597
vt 0.4964 0.4876
vt 0.2576 0.4867
vn -0.5773 0.5773 0.5773
vn 0.5773 0.5773 -0.5773
vn -0.5773 0.5773 -0.5773
vn 0.5773 0.5773 0.5773
vn -0.7071 0.0000 0.7071
vn 0.7071 0.0000 0.7071
vn 0.7071 0.0000 -0.7071
vn -0.7071 0.0000 -0.7071
s 1
f 2/1/1 8/2/2 4/3/3
f 6/4/4 1/5/5 5/6/6
f 8/2/2 5/6/6 7/7/7
f 4/3/3 1/5/5 2/1/1
f 4/3/3 7/7/7 3/8/8
f 2/1/1 6/4/4 8/2/2
f 6/4/4 2/1/1 1/5/5
f 8/2/2 6/4/4 5/6/6
f 4/3/3 3/8/8 1/5/5
f 4/3/3 8/2/2 7/7/7
