# Blender v2.78 (sub 0) OBJ File: 'multiswitch_0.blend'
# www.blender.org
o LR_Button_Rect_3_Cube.058
v -1.999319 -0.651520 0.500000
v -1.999319 0.651520 0.500000
v -1.999319 -0.651520 -0.500000
v -1.999319 0.651520 -0.500000
v 1.999319 -0.651520 0.500000
v 1.999319 0.651520 0.500000
v 1.999319 -0.651520 -0.500000
v 1.999319 0.651520 -0.500000
vt 0.3171 0.1017
vt 0.4546 0.1487
vt 0.3171 0.1548
vt 0.4547 0.0956
vt 0.2788 0.0143
vt 0.5004 0.0139
vt 0.4975 0.2372
vt 0.2769 0.2378
vn -0.5773 0.5773 0.5773
vn 0.5773 0.5773 -0.5773
vn -0.5773 0.5773 -0.5773
vn 0.5773 0.5773 0.5773
vn -0.7071 0.0000 0.7071
vn 0.7071 0.0000 0.7071
vn 0.7071 0.0000 -0.7071
vn -0.7071 0.0000 -0.7071
s 1
f 2/1/1 8/2/2 4/3/3
f 6/4/4 1/5/5 5/6/6
f 8/2/2 5/6/6 7/7/7
f 4/3/3 1/5/5 2/1/1
f 4/3/3 7/7/7 3/8/8
f 2/1/1 6/4/4 8/2/2
f 6/4/4 2/1/1 1/5/5
f 8/2/2 6/4/4 5/6/6
f 4/3/3 3/8/8 1/5/5
f 4/3/3 8/2/2 7/7/7
