# Blender v2.78 (sub 0) OBJ File: 'multiswitch_0.blend'
# www.blender.org
o LR_Button_Rect_0_Cube.061
v -1.000000 -0.651520 1.000000
v -1.000000 0.651520 1.000000
v -1.000000 -0.651520 -1.000000
v -1.000000 0.651520 -1.000000
v 1.000000 -0.651520 1.000000
v 1.000000 0.651520 1.000000
v 1.000000 -0.651520 -1.000000
v 1.000000 0.651520 -1.000000
vt 0.3449 0.9073
vt 0.4894 0.9883
vt 0.2659 0.9862
vt 0.4097 0.9054
vt 0.4929 0.7625
vt 0.2624 0.7628
vt 0.3429 0.8425
vt 0.4077 0.8406
vn -0.5773 0.5773 -0.5773
vn 0.7071 0.0000 -0.7071
vn -0.7071 0.0000 -0.7071
vn 0.5773 0.5773 -0.5773
vn 0.7071 0.0000 0.7071
vn -0.7071 0.0000 0.7071
vn -0.5773 0.5773 0.5773
vn 0.5773 0.5773 0.5773
s 1
f 4/1/1 7/2/2 3/3/3
f 8/4/4 5/5/5 7/2/2
f 4/1/1 1/6/6 2/7/7
f 4/1/1 6/8/8 8/4/4
f 6/8/8 1/6/6 5/5/5
f 4/1/1 8/4/4 7/2/2
f 8/4/4 6/8/8 5/5/5
f 4/1/1 3/3/3 1/6/6
f 4/1/1 2/7/7 6/8/8
f 6/8/8 2/7/7 1/6/6
