# Blender v2.78 (sub 0) OBJ File: 'Speedometer.blend'
# www.blender.org
o Circle.004_Circle.011
v -0.000000 -0.127862 -0.161453
v -0.061785 -0.127862 -0.149163
v -0.114164 -0.127862 -0.114165
v -0.149163 -0.127862 -0.061786
v -0.161453 -0.127862 -0.000000
v -0.149163 -0.127862 0.061785
v -0.114164 -0.127862 0.114164
v -0.061785 -0.127862 0.149163
v -0.000000 -0.127862 0.161452
v 0.061785 -0.127862 0.149163
v 0.114164 -0.127862 0.114164
v 0.149163 -0.127862 0.061785
v 0.161453 -0.127862 -0.000000
v 0.149163 -0.127862 -0.061786
v 0.114164 -0.127862 -0.114165
v 0.061785 -0.127862 -0.149163
v -0.000000 -0.093922 -0.137535
v -0.052632 -0.093922 -0.127066
v -0.097252 -0.093922 -0.097252
v -0.127065 -0.093922 -0.052632
v -0.137535 -0.093922 -0.000000
v -0.127065 -0.093922 0.052632
v -0.097252 -0.093922 0.097251
v -0.052632 -0.093922 0.127065
v -0.000000 -0.093922 0.137534
v 0.052632 -0.093922 0.127065
v 0.097252 -0.093922 0.097251
v 0.127065 -0.093922 0.052632
v 0.137534 -0.093922 -0.000000
v 0.127065 -0.093922 -0.052633
v 0.097251 -0.093922 -0.097252
v 0.052632 -0.093922 -0.127066
v -0.090092 -0.102774 -0.090092
v -0.117711 -0.102774 -0.048758
v -0.127409 -0.102774 -0.000000
v -0.117711 -0.102774 0.048757
v -0.090092 -0.102774 0.090092
v -0.048757 -0.102774 0.117711
v -0.000000 -0.102774 0.127409
v 0.048757 -0.102774 0.117710
v -0.000000 -0.102774 -0.127391
v -0.048750 -0.102774 -0.117694
v 0.090079 -0.102774 0.090078
v 0.117693 -0.102774 0.048750
v 0.127390 -0.102774 -0.000000
v 0.117693 -0.102774 -0.048751
v 0.090078 -0.102774 -0.090079
v 0.048750 -0.102774 -0.117694
v -0.000000 -0.102774 -0.000000
v 0.036318 -0.010078 -0.087681
v -0.000000 -0.017843 -0.000000
v -0.000000 -0.010078 -0.094905
v -0.036319 -0.010078 -0.087681
v -0.067108 -0.010078 -0.067108
v -0.087681 -0.010078 -0.036319
v -0.094905 -0.010078 -0.000000
v -0.087681 -0.010078 0.036318
v -0.067108 -0.010078 0.067108
v -0.036319 -0.010078 0.087681
v -0.000000 -0.010078 0.094905
v 0.036319 -0.010078 0.087681
v 0.067108 -0.010078 0.067108
v 0.087681 -0.010078 0.036318
v 0.094905 -0.010078 -0.000000
v 0.087681 -0.010078 -0.036319
v 0.067108 -0.010078 -0.067108
v -0.000000 -0.002314 -0.000000
v -0.014697 -0.091549 0.803695
v -0.009767 -0.066271 0.803695
v -0.032708 -0.012245 -0.087430
v -0.024682 0.026913 -0.013991
v 0.014697 -0.091549 0.803695
v 0.009767 -0.066271 0.803695
v 0.032708 -0.012245 -0.087430
v 0.024682 0.026913 -0.013991
v -0.038850 -0.091549 0.107865
v -0.025816 0.028284 0.107865
v 0.038850 -0.091549 0.107865
v 0.025816 0.028284 0.107865
vt 0.2297 0.0169
vt 0.1721 0.0580
vt 0.1642 0.0177
vt 0.0718 0.2089
vt 0.0841 0.1612
vt 0.0840 0.2065
vt 0.0571 0.0891
vt 0.1264 0.0773
vt 0.0911 0.1125
vt 0.0314 0.1501
vt 0.0719 0.1588
vt 0.0310 0.2164
vt 0.0560 0.2778
vt 0.0910 0.2553
vt 0.1025 0.3255
vt 0.1264 0.2911
vt 0.3657 0.2164
vt 0.3247 0.1576
vt 0.3657 0.1497
vt 0.3063 0.2550
vt 0.3405 0.2774
vt 0.2329 0.3522
vt 0.1733 0.3106
vt 0.2240 0.3100
vt 0.2948 0.3249
vt 0.2706 0.2907
vt 0.1015 0.1194
vt 0.2688 0.0756
vt 0.2917 0.0410
vt 0.3049 0.1110
vt 0.3397 0.0878
vt 0.1332 0.0874
vt 0.1012 0.2484
vt 0.1333 0.2806
vt 0.1038 0.0429
vt 0.1757 0.2981
vt 0.2958 0.2481
vt 0.2636 0.2803
vt 0.2215 0.2978
vt 0.3128 0.2058
vt 0.2620 0.0861
vt 0.1746 0.0701
vt 0.2218 0.0576
vt 0.2196 0.0698
vt 0.1625 0.2404
vt 0.3124 0.1602
vt 0.3251 0.2081
vt 0.2526 0.1445
vt 0.2335 0.1270
vt 0.2635 0.1681
vt 0.2946 0.1181
vt 0.2645 0.1942
vt 0.2553 0.2187
vt 0.1872 0.2497
vt 0.2374 0.2379
vt 0.2135 0.2488
vt 0.1830 0.1172
vt 0.1982 0.1832
vt 0.1590 0.1282
vt 0.1326 0.1984
vt 0.1317 0.1721
vt 0.1410 0.1475
vt 0.2095 0.1160
vt 0.1433 0.2224
vt 0.1644 0.3520
vt 0.8277 0.1492
vt 0.4082 0.0900
vt 0.8309 0.1103
vt 0.9155 0.1192
vt 0.8402 0.0111
vt 0.9820 0.1102
vt 0.9781 0.1713
vt 0.9115 0.1534
vt 0.4055 0.1016
vt 0.3870 0.0769
vt 0.8217 0.2484
vt 0.3861 0.1126
vn 0.3128 0.5760 0.7552
vn 0.0000 0.9781 0.2079
vn 0.0000 0.5760 0.8174
vn -0.2079 0.9781 0.0000
vn -0.1419 0.9881 0.0588
vn -0.1537 0.9881 0.0000
vn -0.5780 0.5760 0.5780
vn -0.0796 0.9781 0.1921
vn -0.1470 0.9781 0.1470
vn -0.7552 0.5760 0.3128
vn -0.1921 0.9781 0.0796
vn -0.8174 0.5760 0.0000
vn -0.7552 0.5760 -0.3128
vn -0.1921 0.9781 -0.0796
vn -0.5780 0.5760 -0.5780
vn -0.1470 0.9781 -0.1470
vn 0.7552 0.5760 -0.3128
vn 0.2083 0.9781 0.0000
vn 0.8174 0.5760 0.0000
vn 0.1473 0.9781 -0.1473
vn 0.5780 0.5760 -0.5780
vn 0.0000 0.5760 -0.8174
vn -0.0797 0.9781 -0.1924
vn 0.0000 0.9781 -0.2083
vn 0.3128 0.5760 -0.7552
vn 0.0797 0.9781 -0.1924
vn -0.1086 0.9881 0.1086
vn 0.1472 0.9781 0.1473
vn 0.5780 0.5760 0.5780
vn 0.1924 0.9781 0.0797
vn 0.7552 0.5760 0.3128
vn -0.0588 0.9881 0.1419
vn -0.1419 0.9881 -0.0588
vn -0.1085 0.9881 -0.1087
vn -0.3128 0.5760 0.7552
vn -0.0591 0.9880 -0.1426
vn 0.1090 0.9880 -0.1090
vn 0.0590 0.9880 -0.1425
vn 0.0000 0.9880 -0.1542
vn 0.1425 0.9880 -0.0590
vn 0.1091 0.9880 0.1091
vn 0.0000 0.9881 0.1537
vn 0.0796 0.9781 0.1921
vn 0.0589 0.9881 0.1419
vn -0.4599 0.7595 -0.4599
vn 0.1542 0.9880 0.0000
vn 0.1924 0.9781 -0.0797
vn 0.6010 0.7595 0.2489
vn 0.4599 0.7595 0.4599
vn 0.6505 0.7595 0.0000
vn 0.1425 0.9880 0.0590
vn 0.6010 0.7595 -0.2489
vn 0.4599 0.7595 -0.4599
vn -0.2489 0.7595 -0.6010
vn 0.2489 0.7595 -0.6010
vn 0.0000 0.7595 -0.6505
vn 0.0000 0.7595 0.6504
vn 0.0000 1.0000 0.0000
vn -0.2489 0.7595 0.6009
vn -0.6504 0.7595 0.0000
vn -0.6009 0.7595 0.2489
vn -0.4599 0.7595 0.4599
vn 0.2489 0.7595 0.6009
vn -0.6009 0.7595 -0.2489
vn -0.3128 0.5760 -0.7552
vn -0.6563 0.7528 0.0503
vn 0.5150 0.5831 0.6283
vn 0.6563 0.7528 0.0503
vn 0.6010 0.7803 -0.1728
vn 0.9931 0.1149 0.0224
vn 0.4837 0.7931 -0.3700
vn -0.4837 0.7931 -0.3700
vn -0.6010 0.7803 -0.1728
vn -0.5150 0.5831 0.6283
vn 0.7266 0.1417 0.6723
vn -0.9931 0.1149 0.0224
vn -0.7266 0.1417 0.6723
s 1
f 10/1/1 25/2/2 9/3/3
f 21/4/4 36/5/5 35/6/6
f 7/7/7 24/8/8 23/9/9
f 6/10/10 23/9/9 22/11/11
f 5/12/12 22/11/11 21/4/4
f 4/13/13 21/4/4 20/14/14
f 3/15/15 20/14/14 19/16/16
f 14/17/17 29/18/18 13/19/19
f 31/20/20 14/17/17 15/21/21
f 1/22/22 18/23/23 17/24/24
f 31/20/20 16/25/25 32/26/26
f 37/27/27 22/11/11 23/9/9
f 32/26/26 1/22/22 17/24/24
f 27/28/28 10/1/1 11/29/29
f 28/30/30 11/29/29 12/31/31
f 13/19/19 28/30/30 12/31/31
f 38/32/32 23/9/9 24/8/8
f 20/14/14 35/6/6 34/33/33
f 19/16/16 34/33/33 33/34/34
f 8/35/35 25/2/2 24/8/8
f 18/23/23 33/34/34 42/36/36
f 47/37/37 32/26/26 48/38/38
f 17/24/24 42/36/36 41/39/39
f 46/40/40 31/20/20 47/37/37
f 28/30/30 43/41/41 27/28/28
f 39/42/42 24/8/8 25/2/2
f 26/43/43 39/42/42 25/2/2
f 27/28/28 40/44/44 26/43/43
f 54/45/45 42/36/36 33/34/34
f 45/46/46 28/30/30 29/18/18
f 46/40/40 29/18/18 30/47/47
f 43/41/41 63/48/48 62/49/49
f 64/50/50 44/51/51 45/46/46
f 65/52/52 45/46/46 46/40/40
f 66/53/53 46/40/40 47/37/37
f 53/54/54 41/39/39 42/36/36
f 50/55/55 47/37/37 48/38/38
f 52/56/56 48/38/38 41/39/39
f 60/57/57 67/58/58 59/59/59
f 54/45/45 67/58/58 53/54/54
f 56/60/60 34/33/33 35/6/6
f 57/61/61 35/6/6 36/5/5
f 58/62/62 36/5/5 37/27/27
f 59/59/59 37/27/27 38/32/32
f 39/42/42 59/59/59 38/32/32
f 61/63/63 39/42/42 40/44/44
f 43/41/41 61/63/63 40/44/44
f 55/64/64 67/58/58 54/45/45
f 62/49/49 67/58/58 61/63/63
f 67/58/58 60/57/57 61/63/63
f 56/60/60 67/58/58 55/64/64
f 63/48/48 67/58/58 62/49/49
f 57/61/61 67/58/58 56/60/60
f 64/50/50 67/58/58 63/48/48
f 58/62/62 67/58/58 57/61/61
f 65/52/52 67/58/58 64/50/50
f 59/59/59 67/58/58 58/62/62
f 66/53/53 67/58/58 65/52/52
f 53/54/54 67/58/58 52/56/56
f 50/55/55 67/58/58 66/53/53
f 67/58/58 50/55/55 52/56/56
f 48/38/38 17/24/24 41/39/39
f 55/64/64 33/34/34 34/33/33
f 3/15/15 18/23/23 2/65/65
f 77/66/66 73/67/67 79/68/68
f 75/69/69 78/70/70 74/71/71
f 75/69/69 70/72/72 71/73/73
f 69/74/74 72/75/75 73/67/67
f 73/67/67 78/70/70 79/68/68
f 69/74/74 76/76/76 68/77/77
f 76/76/76 71/73/73 70/72/72
f 71/73/73 79/68/68 75/69/69
f 10/1/1 26/43/43 25/2/2
f 21/4/4 22/11/11 36/5/5
f 7/7/7 8/35/35 24/8/8
f 6/10/10 7/7/7 23/9/9
f 5/12/12 6/10/10 22/11/11
f 4/13/13 5/12/12 21/4/4
f 3/15/15 4/13/13 20/14/14
f 14/17/17 30/47/47 29/18/18
f 31/20/20 30/47/47 14/17/17
f 1/22/22 2/65/65 18/23/23
f 31/20/20 15/21/21 16/25/25
f 37/27/27 36/5/5 22/11/11
f 32/26/26 16/25/25 1/22/22
f 27/28/28 26/43/43 10/1/1
f 28/30/30 27/28/28 11/29/29
f 13/19/19 29/18/18 28/30/30
f 38/32/32 37/27/27 23/9/9
f 20/14/14 21/4/4 35/6/6
f 19/16/16 20/14/14 34/33/33
f 8/35/35 9/3/3 25/2/2
f 18/23/23 19/16/16 33/34/34
f 47/37/37 31/20/20 32/26/26
f 17/24/24 18/23/23 42/36/36
f 46/40/40 30/47/47 31/20/20
f 28/30/30 44/51/51 43/41/41
f 39/42/42 38/32/32 24/8/8
f 26/43/43 40/44/44 39/42/42
f 27/28/28 43/41/41 40/44/44
f 54/45/45 53/54/54 42/36/36
f 45/46/46 44/51/51 28/30/30
f 46/40/40 45/46/46 29/18/18
f 43/41/41 44/51/51 63/48/48
f 64/50/50 63/48/48 44/51/51
f 65/52/52 64/50/50 45/46/46
f 66/53/53 65/52/52 46/40/40
f 53/54/54 52/56/56 41/39/39
f 50/55/55 66/53/53 47/37/37
f 52/56/56 50/55/55 48/38/38
f 56/60/60 55/64/64 34/33/33
f 57/61/61 56/60/60 35/6/6
f 58/62/62 57/61/61 36/5/5
f 59/59/59 58/62/62 37/27/27
f 39/42/42 60/57/57 59/59/59
f 61/63/63 60/57/57 39/42/42
f 43/41/41 62/49/49 61/63/63
f 48/38/38 32/26/26 17/24/24
f 55/64/64 54/45/45 33/34/34
f 3/15/15 19/16/16 18/23/23
f 77/66/66 69/74/74 73/67/67
f 75/69/69 79/68/68 78/70/70
f 75/69/69 74/71/71 70/72/72
f 69/74/74 68/77/77 72/75/75
f 73/67/67 72/75/75 78/70/70
f 69/74/74 77/66/66 76/76/76
f 76/76/76 77/66/66 71/73/73
f 71/73/73 77/66/66 79/68/68
l 51 67
l 49 51
