# Blender v2.78 (sub 0) OBJ File: 'Speedometer.blend'
# www.blender.org
o Display_Circle.004
v 0.000000 -0.163680 -1.084201
v -0.211517 -0.163680 -1.063368
v -0.414906 -0.163680 -1.001671
v -0.602350 -0.163680 -0.901480
v -0.766646 -0.163680 -0.766646
v -0.901480 -0.163680 -0.602350
v -1.001671 -0.163680 -0.414906
v -1.063368 -0.163680 -0.211517
v -1.084201 -0.163680 -0.000000
v -1.063368 -0.163680 0.211517
v -1.001671 -0.163680 0.414906
v -0.901480 -0.163680 0.602350
v -0.766646 -0.163680 0.766646
v -0.602350 -0.163680 0.901480
v -0.414906 -0.163680 1.001671
v -0.211517 -0.163680 1.063369
v 0.000000 -0.163680 1.084201
v 0.211518 -0.163680 1.063368
v 0.414906 -0.163680 1.001671
v 0.602350 -0.163680 0.901480
v 0.766646 -0.163680 0.766645
v 0.901481 -0.163680 0.602349
v 1.001671 -0.163680 0.414905
v 1.063369 -0.163680 0.211516
v 1.084201 -0.163680 -0.000001
v 1.063368 -0.163680 -0.211518
v 1.001671 -0.163680 -0.414907
v 0.901479 -0.163680 -0.602351
v 0.766645 -0.163680 -0.766647
v 0.602349 -0.163680 -0.901481
v 0.414904 -0.163680 -1.001672
v 0.211516 -0.163680 -1.063369
v 0.000000 0.105015 -1.056131
v -0.206041 0.105015 -1.035838
v -0.404164 0.105015 -0.975738
v -0.586755 0.105015 -0.878141
v -0.746798 0.105015 -0.746798
v -0.878141 0.105015 -0.586755
v -0.975738 0.105015 -0.404164
v -1.035838 0.105015 -0.206041
v -1.056131 0.105015 -0.000000
v -1.035838 0.105015 0.206041
v -0.975738 0.105015 0.404164
v -0.878141 0.105015 0.586755
v -0.746798 0.105015 0.746798
v -0.586755 0.105015 0.878141
v -0.404164 0.105015 0.975738
v -0.206041 0.105015 1.035838
v 0.000000 0.105015 1.056131
v 0.206041 0.105015 1.035838
v 0.404164 0.105015 0.975738
v 0.586756 0.105015 0.878141
v 0.746798 0.105015 0.746797
v 0.878142 0.105015 0.586755
v 0.975739 0.105015 0.404163
v 1.035838 0.105015 0.206040
v 1.056131 0.105015 -0.000001
v 1.035838 0.105015 -0.206042
v 0.975738 0.105015 -0.404165
v 0.878140 0.105015 -0.586756
v 0.746797 0.105015 -0.746799
v 0.586754 0.105015 -0.878142
v 0.404163 0.105015 -0.975739
v 0.206039 0.105015 -1.035838
v -0.000000 0.105015 -0.939222
v -0.183233 0.105015 -0.921175
v -0.359425 0.105015 -0.867728
v -0.521804 0.105015 -0.780934
v -0.664130 0.105015 -0.664130
v -0.780934 0.105015 -0.521804
v -0.867728 0.105015 -0.359425
v -0.921175 0.105015 -0.183233
v -0.939222 0.105015 -0.000000
v -0.921175 0.105015 0.183233
v -0.867728 0.105015 0.359424
v -0.780934 0.105015 0.521803
v -0.664130 0.105015 0.664130
v -0.521804 0.105015 0.780934
v -0.359424 0.105015 0.867728
v -0.183233 0.105015 0.921175
v 0.000000 0.105015 0.939222
v 0.183233 0.105015 0.921175
v 0.359425 0.105015 0.867727
v 0.521804 0.105015 0.780934
v 0.664130 0.105015 0.664130
v 0.780935 0.105015 0.521803
v 0.867728 0.105015 0.359424
v 0.921175 0.105015 0.183232
v 0.939222 0.105015 -0.000001
v 0.921175 0.105015 -0.183234
v 0.867727 0.105015 -0.359426
v 0.780934 0.105015 -0.521805
v 0.664129 0.105015 -0.664131
v 0.521802 0.105015 -0.780935
v 0.359423 0.105015 -0.867728
v 0.183232 0.105015 -0.921175
v -0.000000 -0.103059 -0.939222
v -0.183233 -0.103059 -0.921175
v -0.359425 -0.103059 -0.867728
v -0.521804 -0.103059 -0.780934
v -0.664130 -0.103059 -0.664130
v -0.780934 -0.103059 -0.521804
v -0.867728 -0.103059 -0.359425
v -0.921175 -0.103059 -0.183233
v -0.939222 -0.103059 -0.000000
v -0.921175 -0.103059 0.183233
v -0.867728 -0.103059 0.359424
v -0.780934 -0.103059 0.521803
v -0.664130 -0.103059 0.664130
v -0.521804 -0.103059 0.780934
v -0.359424 -0.103059 0.867728
v -0.183233 -0.103059 0.921175
v 0.000000 -0.103059 0.939222
v 0.183233 -0.103059 0.921175
v 0.359425 -0.103059 0.867727
v 0.521804 -0.103059 0.780934
v 0.664130 -0.103059 0.664130
v 0.780935 -0.103059 0.521803
v 0.867728 -0.103059 0.359424
v 0.921175 -0.103059 0.183232
v 0.939222 -0.103059 -0.000001
v 0.921175 -0.103059 -0.183234
v 0.867727 -0.103059 -0.359426
v 0.780934 -0.103059 -0.521805
v 0.664129 -0.103059 -0.664131
v 0.521802 -0.103059 -0.780935
v 0.359423 -0.103059 -0.867728
v 0.183232 -0.103059 -0.921175
v -0.000000 -0.103059 -0.000000
v -0.000000 -0.127862 -0.000000
vt 0.7059 0.2688
vt 0.6419 0.2247
vt 0.7155 0.2394
vt 0.3081 0.8493
vt 0.3814 0.8788
vt 0.3613 0.9024
vt 0.6396 0.9565
vt 0.7156 0.9728
vt 0.6419 0.9874
vt 0.7697 0.2951
vt 0.7849 0.2681
vt 0.2940 0.7728
vt 0.2664 0.7868
vt 0.5705 0.9567
vt 0.5668 0.9874
vt 0.8272 0.3333
vt 0.8474 0.3098
vt 0.2674 0.7091
vt 0.2376 0.7174
vt 0.8762 0.3820
vt 0.9005 0.3629
vt 0.2538 0.6413
vt 0.2228 0.6437
vt 0.9147 0.4393
vt 0.9423 0.4253
vt 0.2536 0.5722
vt 0.2228 0.5685
vt 0.9413 0.5031
vt 0.9711 0.4947
vt 0.2670 0.5045
vt 0.2375 0.4948
vt 0.9549 0.5708
vt 0.9858 0.5684
vt 0.2933 0.4406
vt 0.2663 0.4253
vt 0.9551 0.6399
vt 0.9859 0.6436
vt 0.3081 0.3629
vt 0.9417 0.7077
vt 0.9712 0.7174
vt 0.3803 0.3342
vt 0.3612 0.3098
vt 0.9424 0.7868
vt 0.4377 0.2957
vt 0.4237 0.2681
vt 0.8771 0.8290
vt 0.9006 0.8492
vt 0.5014 0.2692
vt 0.4931 0.2394
vt 0.5028 0.9434
vt 0.4931 0.9728
vt 0.8284 0.8779
vt 0.8474 0.9023
vt 0.5691 0.2556
vt 0.5668 0.2247
vt 0.4389 0.9171
vt 0.4238 0.9441
vt 0.7850 0.9440
vt 0.6381 0.2555
vt 0.7073 0.9429
vt 0.9214 0.6367
vt 0.4018 0.3603
vt 0.3316 0.3831
vt 0.9154 0.7715
vt 0.9093 0.6979
vt 0.4537 0.3255
vt 0.8509 0.8077
vt 0.5113 0.3015
vt 0.5125 0.9110
vt 0.5725 0.2892
vt 0.4548 0.8872
vt 0.7710 0.9164
vt 0.8068 0.8519
vt 0.6349 0.2891
vt 0.4028 0.8526
vt 0.7550 0.8866
vt 0.6962 0.3012
vt 0.3586 0.8086
vt 0.3325 0.8301
vt 0.6974 0.9106
vt 0.3238 0.7568
vt 0.5737 0.9230
vt 0.8059 0.3595
vt 0.2997 0.6991
vt 0.8501 0.4035
vt 0.2874 0.6379
vt 0.2873 0.5755
vt 0.9089 0.5130
vt 0.2994 0.5142
vt 0.3232 0.4565
vt 0.9213 0.5742
vt 0.3578 0.4045
vt 0.7871 0.8276
vt 0.5755 0.3203
vt 0.4696 0.8597
vt 0.7404 0.8590
vt 0.6317 0.3202
vt 0.4227 0.8286
vt 0.6884 0.8807
vt 0.6870 0.3310
vt 0.3828 0.7888
vt 0.6332 0.8918
vt 0.6362 0.9229
vt 0.7391 0.3524
vt 0.7539 0.3249
vt 0.3514 0.7421
vt 0.5769 0.8919
vt 0.7860 0.3836
vt 0.3297 0.6902
vt 0.8259 0.4233
vt 0.3186 0.6350
vt 0.8573 0.4700
vt 0.8849 0.4554
vt 0.3184 0.5786
vt 0.8790 0.5220
vt 0.3292 0.5234
vt 0.8901 0.5772
vt 0.3507 0.4713
vt 0.8903 0.6335
vt 0.3818 0.4244
vt 0.8794 0.6887
vt 0.4216 0.3845
vt 0.8580 0.7408
vt 0.8855 0.7557
vt 0.4683 0.3531
vt 0.8268 0.7877
vt 0.5203 0.3314
vt 0.5217 0.8811
vt 0.6043 0.6061
vn 0.1348 0.7226 0.6779
vn 0.0000 0.1039 0.9946
vn 0.1940 0.1039 0.9755
vn -0.7033 0.1039 -0.7033
vn -0.3840 0.7226 -0.5747
vn -0.5525 0.1039 -0.8270
vn 0.1348 0.7226 -0.6779
vn 0.3806 0.1039 -0.9189
vn 0.1940 0.1039 -0.9755
vn 0.2645 0.7226 0.6386
vn 0.3806 0.1039 0.9189
vn -0.5747 0.7226 -0.3840
vn -0.8270 0.1039 -0.5525
vn 0.0000 0.7226 -0.6912
vn 0.0000 0.1039 -0.9946
vn 0.3840 0.7226 0.5747
vn 0.5525 0.1039 0.8270
vn -0.6386 0.7226 -0.2645
vn -0.9189 0.1039 -0.3806
vn 0.4888 0.7226 0.4888
vn 0.7033 0.1039 0.7033
vn -0.6779 0.7226 -0.1348
vn -0.9755 0.1039 -0.1940
vn 0.5747 0.7226 0.3840
vn 0.8270 0.1039 0.5525
vn -0.6912 0.7226 0.0000
vn -0.9946 0.1039 0.0000
vn 0.6386 0.7226 0.2645
vn 0.9189 0.1039 0.3806
vn -0.6779 0.7226 0.1348
vn -0.9755 0.1039 0.1940
vn 0.6779 0.7226 0.1348
vn 0.9755 0.1039 0.1940
vn -0.6386 0.7226 0.2645
vn -0.9189 0.1039 0.3806
vn 0.6912 0.7226 0.0000
vn 0.9946 0.1039 0.0000
vn -0.8270 0.1039 0.5525
vn 0.6779 0.7226 -0.1348
vn 0.9755 0.1039 -0.1940
vn -0.4888 0.7226 0.4888
vn -0.7033 0.1039 0.7033
vn 0.9189 0.1039 -0.3806
vn -0.3840 0.7226 0.5747
vn -0.5525 0.1039 0.8270
vn 0.5747 0.7226 -0.3840
vn 0.8270 0.1039 -0.5525
vn -0.2645 0.7226 0.6386
vn -0.3806 0.1039 0.9189
vn -0.1348 0.7226 -0.6779
vn -0.1940 0.1039 -0.9755
vn 0.4888 0.7226 -0.4888
vn 0.7033 0.1039 -0.7033
vn -0.1348 0.7226 0.6779
vn -0.1940 0.1039 0.9755
vn -0.2645 0.7226 -0.6386
vn -0.3806 0.1039 -0.9189
vn 0.5525 0.1039 -0.8270
vn 0.0000 0.7226 0.6912
vn 0.2645 0.7226 -0.6386
vn -0.6836 0.7298 0.0000
vn 0.4834 0.7298 -0.4834
vn -0.5747 0.7226 0.3840
vn 0.6386 0.7226 -0.2645
vn -0.6705 0.7298 0.1334
vn 0.3798 0.7298 -0.5684
vn -0.5684 0.7298 0.3798
vn 0.2616 0.7298 -0.6316
vn 0.1333 0.7298 0.6705
vn 0.1333 0.7298 -0.6705
vn 0.2616 0.7298 0.6316
vn 0.3840 0.7226 -0.5747
vn -0.4834 0.7298 0.4834
vn 0.0000 0.7298 -0.6836
vn 0.3798 0.7298 0.5684
vn -0.3798 0.7298 0.5684
vn -0.1333 0.7298 -0.6705
vn 0.4834 0.7298 0.4834
vn -0.4888 0.7226 -0.4888
vn -0.2616 0.7298 0.6316
vn 0.5684 0.7298 0.3798
vn 0.0000 0.7298 0.6836
vn -0.3798 0.7298 -0.5684
vn 0.6316 0.7298 0.2616
vn -0.4834 0.7298 -0.4834
vn 0.6705 0.7298 0.1333
vn 0.6836 0.7298 0.0000
vn -0.6316 0.7298 -0.2616
vn 0.6705 0.7298 -0.1333
vn 0.6316 0.7298 -0.2616
vn -0.6705 0.7298 -0.1333
vn 0.5684 0.7298 -0.3798
vn -0.5206 0.6766 0.5206
vn 0.1437 0.6766 -0.7222
vn 0.2818 0.6766 0.6803
vn -0.4091 0.6766 0.6122
vn 0.0000 0.6766 -0.7363
vn 0.4091 0.6766 0.6122
vn -0.2818 0.6766 0.6803
vn -0.1437 0.6766 -0.7222
vn 0.5206 0.6766 0.5206
vn -0.1437 0.6766 0.7222
vn -0.1333 0.7298 0.6705
vn -0.2818 0.6766 -0.6803
vn -0.2616 0.7298 -0.6316
vn 0.6122 0.6766 0.4091
vn 0.0000 0.6766 0.7363
vn -0.4091 0.6766 -0.6122
vn 0.6803 0.6766 0.2818
vn -0.5206 0.6766 -0.5206
vn 0.7222 0.6766 0.1437
vn -0.6122 0.6766 -0.4091
vn -0.5684 0.7298 -0.3798
vn 0.7363 0.6766 0.0000
vn -0.6803 0.6766 -0.2818
vn 0.7222 0.6766 -0.1437
vn -0.7222 0.6766 -0.1437
vn 0.6803 0.6766 -0.2818
vn -0.7363 0.6766 0.0000
vn 0.6122 0.6766 -0.4091
vn -0.7222 0.6766 0.1437
vn 0.5206 0.6766 -0.5206
vn -0.6803 0.6766 0.2818
vn -0.6316 0.7298 0.2616
vn 0.4091 0.6766 -0.6122
vn -0.6122 0.6766 0.4091
vn 0.2818 0.6766 -0.6803
vn 0.1437 0.6766 0.7222
vn 0.0000 1.0000 0.0000
s 1
f 50/1/1 17/2/2 18/3/3
f 5/4/4 36/5/5 4/6/6
f 64/7/7 31/8/8 32/9/9
f 51/10/10 18/3/3 19/11/11
f 38/12/12 5/4/4 6/13/13
f 33/14/14 32/9/9 1/15/15
f 52/16/16 19/11/11 20/17/17
f 39/18/18 6/13/13 7/19/19
f 53/20/20 20/17/17 21/21/21
f 40/22/22 7/19/19 8/23/23
f 54/24/24 21/21/21 22/25/25
f 41/26/26 8/23/23 9/27/27
f 55/28/28 22/25/25 23/29/29
f 42/30/30 9/27/27 10/31/31
f 56/32/32 23/29/29 24/33/33
f 43/34/34 10/31/31 11/35/35
f 57/36/36 24/33/33 25/37/37
f 12/38/38 43/34/34 11/35/35
f 58/39/39 25/37/37 26/40/40
f 45/41/41 12/38/38 13/42/42
f 27/43/43 58/39/39 26/40/40
f 46/44/44 13/42/42 14/45/45
f 60/46/46 27/43/43 28/47/47
f 47/48/48 14/45/45 15/49/49
f 34/50/50 1/15/15 2/51/51
f 61/52/52 28/47/47 29/53/53
f 48/54/54 15/49/49 16/55/55
f 35/56/56 2/51/51 3/57/57
f 30/58/58 61/52/52 29/53/53
f 49/59/59 16/55/55 17/2/2
f 36/5/5 3/57/57 4/6/6
f 63/60/60 30/58/58 31/8/8
f 58/39/39 89/61/61 57/36/36
f 77/62/62 44/63/63 45/41/41
f 59/64/64 90/65/65 58/39/39
f 78/66/66 45/41/41 46/44/44
f 92/67/67 59/64/64 60/46/46
f 79/68/68 46/44/44 47/48/48
f 66/69/69 33/14/14 34/50/50
f 61/52/52 92/67/67 60/46/46
f 80/70/70 47/48/48 48/54/54
f 67/71/71 34/50/50 35/56/56
f 62/72/72 93/73/73 61/52/52
f 81/74/74 48/54/54 49/59/59
f 68/75/75 35/56/56 36/5/5
f 63/60/60 94/76/76 62/72/72
f 82/77/77 49/59/59 50/1/1
f 69/78/78 36/5/5 37/79/79
f 64/7/7 95/80/80 63/60/60
f 51/10/10 82/77/77 50/1/1
f 70/81/81 37/79/79 38/12/12
f 65/82/82 64/7/7 33/14/14
f 84/83/83 51/10/10 52/16/16
f 71/84/84 38/12/12 39/18/18
f 85/85/85 52/16/16 53/20/20
f 72/86/86 39/18/18 40/22/22
f 54/24/24 85/85/85 53/20/20
f 73/87/87 40/22/22 41/26/26
f 87/88/88 54/24/24 55/28/28
f 74/89/89 41/26/26 42/30/30
f 56/32/32 87/88/88 55/28/28
f 75/90/90 42/30/30 43/34/34
f 57/36/36 88/91/91 56/32/32
f 76/92/92 43/34/34 44/63/63
f 125/93/93 92/67/67 93/73/73
f 112/94/94 79/68/68 80/70/70
f 99/95/95 66/69/69 67/71/71
f 126/96/96 93/73/73 94/76/76
f 113/97/97 80/70/70 81/74/74
f 100/98/98 67/71/71 68/75/75
f 127/99/99 94/76/76 95/80/80
f 114/100/100 81/74/74 82/77/77
f 101/101/101 68/75/75 69/78/78
f 128/102/102 95/80/80 96/103/103
f 115/104/104 82/77/77 83/105/105
f 102/106/106 69/78/78 70/81/81
f 97/107/107 96/103/103 65/82/82
f 116/108/108 83/105/105 84/83/83
f 103/109/109 70/81/81 71/84/84
f 117/110/110 84/83/83 85/85/85
f 104/111/111 71/84/84 72/86/86
f 118/112/112 85/85/85 86/113/113
f 105/114/114 72/86/86 73/87/87
f 119/115/115 86/113/113 87/88/88
f 106/116/116 73/87/87 74/89/89
f 120/117/117 87/88/88 88/91/91
f 107/118/118 74/89/89 75/90/90
f 121/119/119 88/91/91 89/61/61
f 108/120/120 75/90/90 76/92/92
f 122/121/121 89/61/61 90/65/65
f 109/122/122 76/92/92 77/62/62
f 123/123/123 90/65/65 91/124/124
f 110/125/125 77/62/62 78/66/66
f 124/126/126 91/124/124 92/67/67
f 111/127/127 78/66/66 79/68/68
f 98/128/128 65/82/82 66/69/69
f 98/128/128 130/129/129 97/107/107
f 97/107/107 130/129/129 128/102/102
f 116/108/108 130/129/129 115/104/104
f 103/109/109 130/129/129 102/106/106
f 117/110/110 130/129/129 116/108/108
f 104/111/111 130/129/129 103/109/109
f 118/112/112 130/129/129 117/110/110
f 105/114/114 130/129/129 104/111/111
f 119/115/115 130/129/129 118/112/112
f 106/116/116 130/129/129 105/114/114
f 120/117/117 130/129/129 119/115/115
f 107/118/118 130/129/129 106/116/116
f 121/119/119 130/129/129 120/117/117
f 108/120/120 130/129/129 107/118/118
f 122/121/121 130/129/129 121/119/119
f 109/122/122 130/129/129 108/120/120
f 123/123/123 130/129/129 122/121/121
f 110/125/125 130/129/129 109/122/122
f 124/126/126 130/129/129 123/123/123
f 111/127/127 130/129/129 110/125/125
f 125/93/93 130/129/129 124/126/126
f 112/94/94 130/129/129 111/127/127
f 99/95/95 130/129/129 98/128/128
f 126/96/96 130/129/129 125/93/93
f 113/97/97 130/129/129 112/94/94
f 100/98/98 130/129/129 99/95/95
f 127/99/99 130/129/129 126/96/96
f 114/100/100 130/129/129 113/97/97
f 101/101/101 130/129/129 100/98/98
f 130/129/129 127/99/99 128/102/102
f 115/104/104 130/129/129 114/100/100
f 130/129/129 101/101/101 102/106/106
f 50/1/1 49/59/59 17/2/2
f 5/4/4 37/79/79 36/5/5
f 64/7/7 63/60/60 31/8/8
f 51/10/10 50/1/1 18/3/3
f 38/12/12 37/79/79 5/4/4
f 33/14/14 64/7/7 32/9/9
f 52/16/16 51/10/10 19/11/11
f 39/18/18 38/12/12 6/13/13
f 53/20/20 52/16/16 20/17/17
f 40/22/22 39/18/18 7/19/19
f 54/24/24 53/20/20 21/21/21
f 41/26/26 40/22/22 8/23/23
f 55/28/28 54/24/24 22/25/25
f 42/30/30 41/26/26 9/27/27
f 56/32/32 55/28/28 23/29/29
f 43/34/34 42/30/30 10/31/31
f 57/36/36 56/32/32 24/33/33
f 12/38/38 44/63/63 43/34/34
f 58/39/39 57/36/36 25/37/37
f 45/41/41 44/63/63 12/38/38
f 27/43/43 59/64/64 58/39/39
f 46/44/44 45/41/41 13/42/42
f 60/46/46 59/64/64 27/43/43
f 47/48/48 46/44/44 14/45/45
f 34/50/50 33/14/14 1/15/15
f 61/52/52 60/46/46 28/47/47
f 48/54/54 47/48/48 15/49/49
f 35/56/56 34/50/50 2/51/51
f 30/58/58 62/72/72 61/52/52
f 49/59/59 48/54/54 16/55/55
f 36/5/5 35/56/56 3/57/57
f 63/60/60 62/72/72 30/58/58
f 58/39/39 90/65/65 89/61/61
f 77/62/62 76/92/92 44/63/63
f 59/64/64 91/124/124 90/65/65
f 78/66/66 77/62/62 45/41/41
f 92/67/67 91/124/124 59/64/64
f 79/68/68 78/66/66 46/44/44
f 66/69/69 65/82/82 33/14/14
f 61/52/52 93/73/73 92/67/67
f 80/70/70 79/68/68 47/48/48
f 67/71/71 66/69/69 34/50/50
f 62/72/72 94/76/76 93/73/73
f 81/74/74 80/70/70 48/54/54
f 68/75/75 67/71/71 35/56/56
f 63/60/60 95/80/80 94/76/76
f 82/77/77 81/74/74 49/59/59
f 69/78/78 68/75/75 36/5/5
f 64/7/7 96/103/103 95/80/80
f 51/10/10 83/105/105 82/77/77
f 70/81/81 69/78/78 37/79/79
f 65/82/82 96/103/103 64/7/7
f 84/83/83 83/105/105 51/10/10
f 71/84/84 70/81/81 38/12/12
f 85/85/85 84/83/83 52/16/16
f 72/86/86 71/84/84 39/18/18
f 54/24/24 86/113/113 85/85/85
f 73/87/87 72/86/86 40/22/22
f 87/88/88 86/113/113 54/24/24
f 74/89/89 73/87/87 41/26/26
f 56/32/32 88/91/91 87/88/88
f 75/90/90 74/89/89 42/30/30
f 57/36/36 89/61/61 88/91/91
f 76/92/92 75/90/90 43/34/34
f 125/93/93 124/126/126 92/67/67
f 112/94/94 111/127/127 79/68/68
f 99/95/95 98/128/128 66/69/69
f 126/96/96 125/93/93 93/73/73
f 113/97/97 112/94/94 80/70/70
f 100/98/98 99/95/95 67/71/71
f 127/99/99 126/96/96 94/76/76
f 114/100/100 113/97/97 81/74/74
f 101/101/101 100/98/98 68/75/75
f 128/102/102 127/99/99 95/80/80
f 115/104/104 114/100/100 82/77/77
f 102/106/106 101/101/101 69/78/78
f 97/107/107 128/102/102 96/103/103
f 116/108/108 115/104/104 83/105/105
f 103/109/109 102/106/106 70/81/81
f 117/110/110 116/108/108 84/83/83
f 104/111/111 103/109/109 71/84/84
f 118/112/112 117/110/110 85/85/85
f 105/114/114 104/111/111 72/86/86
f 119/115/115 118/112/112 86/113/113
f 106/116/116 105/114/114 73/87/87
f 120/117/117 119/115/115 87/88/88
f 107/118/118 106/116/116 74/89/89
f 121/119/119 120/117/117 88/91/91
f 108/120/120 107/118/118 75/90/90
f 122/121/121 121/119/119 89/61/61
f 109/122/122 108/120/120 76/92/92
f 123/123/123 122/121/121 90/65/65
f 110/125/125 109/122/122 77/62/62
f 124/126/126 123/123/123 91/124/124
f 111/127/127 110/125/125 78/66/66
f 98/128/128 97/107/107 65/82/82
l 129 130
