# Blender v2.78 (sub 0) OBJ File: 'Switch_2.blend'
# www.blender.org
o LR_Base_Cylinder.001
v -0.087156 -0.328590 -0.996195
v -0.087156 1.000000 -0.996195
v 0.087156 -0.328590 -0.996195
v 0.087156 1.000000 -0.996195
v 0.422618 -0.328590 -0.906308
v 0.422618 1.000000 -0.906308
v 0.573576 -0.328590 -0.819152
v 0.573576 1.000000 -0.819152
v 0.819152 -0.328590 -0.573576
v 0.819152 1.000000 -0.573576
v 0.906308 -0.328590 -0.422618
v 0.906308 1.000000 -0.422618
v 0.996195 -0.328590 -0.087156
v 0.996195 1.000000 -0.087156
v 0.996195 -0.328590 0.087156
v 0.996195 1.000000 0.087156
v 0.906308 -0.328590 0.422618
v 0.906308 1.000000 0.422618
v 0.819152 -0.328590 0.573576
v 0.819152 1.000000 0.573576
v 0.573577 -0.328590 0.819152
v 0.573577 1.000000 0.819152
v 0.422619 -0.328590 0.906308
v 0.422619 1.000000 0.906308
v 0.087156 -0.328590 0.996195
v 0.087156 1.000000 0.996195
v -0.087155 -0.328590 0.996195
v -0.087155 1.000000 0.996195
v -0.422618 -0.328590 0.906308
v -0.422618 1.000000 0.906308
v -0.573576 -0.328590 0.819152
v -0.573576 1.000000 0.819152
v -0.819152 -0.328590 0.573577
v -0.819152 1.000000 0.573577
v -0.906308 -0.328590 0.422619
v -0.906308 1.000000 0.422619
v -0.996195 -0.328590 0.087156
v -0.996195 1.000000 0.087156
v -0.996195 -0.328590 -0.087155
v -0.996195 1.000000 -0.087155
v -0.906308 -0.328590 -0.422618
v -0.906308 1.000000 -0.422618
v -0.819152 -0.328590 -0.573576
v -0.819152 1.000000 -0.573576
v -0.573577 -0.328590 -0.819152
v -0.573577 1.000000 -0.819152
v -0.422619 -0.328590 -0.906307
v -0.422619 1.000000 -0.906307
v -0.155459 -0.328590 -1.139588
v -0.155459 0.896421 -1.139588
v 0.155458 0.896421 -1.139589
v 0.155458 -0.325003 -1.139589
v 0.435163 -0.289019 -1.064642
v 0.435163 0.896421 -1.064642
v 0.704425 0.896421 -0.909183
v 0.704425 -0.328590 -0.909183
v 0.909183 -0.328590 -0.704425
v 0.909183 0.896421 -0.704425
v 1.064642 0.896421 -0.435163
v 1.064642 -0.328590 -0.435163
v 1.139588 -0.328590 -0.155459
v 1.139588 0.896421 -0.155459
v 1.139588 0.896421 0.155458
v 1.139588 -0.328590 0.155458
v 1.064642 -0.328590 0.435163
v 1.064642 0.896421 0.435163
v 0.909184 0.896421 0.704425
v 0.909184 -0.328590 0.704425
v 0.704426 -0.328590 0.909183
v 0.704426 0.896421 0.909183
v 0.435164 0.896421 1.064642
v 0.435164 -0.328590 1.064642
v 0.155459 -0.328590 1.139588
v 0.155459 0.896421 1.139588
v -0.155458 0.896421 1.139589
v -0.155458 -0.328590 1.139589
v -0.435163 -0.328590 1.064642
v -0.435163 0.896421 1.064642
v -0.704425 0.896421 0.909184
v -0.704425 -0.328590 0.909184
v -0.909183 -0.328590 0.704426
v -0.909183 0.896421 0.704426
v -1.064642 0.896421 0.435164
v -1.064642 -0.328590 0.435164
v -1.139588 -0.328590 0.155459
v -1.139588 0.896421 0.155459
v -1.139589 0.896421 -0.155458
v -1.139589 -0.328590 -0.155458
v -1.064642 -0.328590 -0.435163
v -1.064642 0.896421 -0.435163
v -0.909184 0.896421 -0.704425
v -0.909184 -0.328590 -0.704425
v -0.704426 -0.328590 -0.909183
v -0.704426 0.896421 -0.909183
v -0.435164 0.896421 -1.064641
v -0.435164 -0.328590 -1.064641
v 0.068956 1.077165 0.788166
v -0.068955 1.077165 0.788166
v 0.645449 1.117067 -0.000000
v 0.558975 1.117067 -0.322724
v 0.322724 1.117067 -0.558975
v 0.000000 1.117067 -0.645448
v 0.558975 1.117067 0.322724
v 0.322724 1.117067 0.558975
v 0.000000 1.117067 0.645449
v -0.322724 1.117067 0.558975
v -0.558975 1.117067 0.322725
v -0.645448 1.117067 0.000000
v -0.558975 1.117067 -0.322724
v -0.322725 1.117067 -0.558975
v 0.000000 0.985811 0.000000
v 0.088416 -0.328590 1.334341
v -0.085895 -0.328590 1.334341
v -0.085895 1.077165 1.243310
v 0.088416 1.077165 1.243310
vt 0.5197 0.2921
vt 0.3834 0.2072
vt 0.4911 0.1808
vt 0.1308 0.5096
vt 0.0291 0.5676
vt 0.0250 0.5155
vt 0.5764 0.9526
vt 0.5142 0.8475
vt 0.5426 0.8039
vt 0.2886 0.7161
vt 0.4473 0.6765
vt 0.3860 0.7755
vt 0.4342 0.7908
vt 0.6186 0.3155
vt 0.5413 0.1783
vt 0.6465 0.2059
vt 0.7071 0.5750
vt 0.8166 0.5961
vt 0.7981 0.6416
vt 0.4198 0.3203
vt 0.2531 0.3095
vt 0.3393 0.2336
vt 0.8374 0.4914
vt 0.8722 0.5778
vt 0.5764 0.1391
vt 0.1947 0.6798
vt 0.1911 0.5682
vt 0.2501 0.6775
vt 0.6913 0.2275
vt 0.7838 0.2444
vt 0.7693 0.3017
vt 0.2812 0.2127
vt 0.8186 0.6885
vt 0.7298 0.7236
vt 0.0555 0.6499
vt 0.8476 0.3500
vt 0.8319 0.4424
vt 0.7977 0.3420
vt 0.4503 0.1366
vt 0.6917 0.7549
vt 0.6382 0.8316
vt 0.5916 0.7946
vt 0.1416 0.4240
vt 0.2248 0.3548
vt 0.1804 0.4702
vt 0.2652 0.5410
vt 0.3603 0.6142
vt 0.5496 0.6894
vt 0.7250 0.4772
vt 0.6929 0.3831
vt 0.3440 0.3962
vt 0.2612 0.4837
vt 0.3172 0.5082
vt 0.6436 0.6522
vt 0.5288 0.4917
vt 0.2874 0.7717
vt 0.9719 0.4271
vt 0.9750 0.4686
vt 0.4793 0.0246
vt 0.4328 0.0293
vt 0.8713 0.3992
vt 0.9631 0.3826
vt 0.8896 0.2095
vt 0.9133 0.2455
vt 0.7072 0.0652
vt 0.7450 0.0854
vt 0.5220 0.0246
vt 0.2596 0.0955
vt 0.2973 0.0756
vt 0.0987 0.2587
vt 0.1229 0.2241
vt 0.1857 0.8345
vt 0.1562 0.8045
vt 0.3877 0.9436
vt 0.3470 0.9300
vt 0.6183 0.9455
vt 0.9486 0.6516
vt 0.9629 0.6081
vt 0.8210 0.8396
vt 0.7876 0.8654
vt 0.9316 0.6899
vt 0.4581 0.8465
vt 0.4334 0.9539
vt 0.8778 0.5230
vt 0.9264 0.2924
vt 0.7402 0.2101
vt 0.8598 0.1730
vt 0.6639 0.0474
vt 0.6317 0.1484
vt 0.3962 0.1550
vt 0.2402 0.2555
vt 0.2208 0.1212
vt 0.0762 0.2986
vt 0.1604 0.3624
vt 0.0743 0.6915
vt 0.1574 0.6282
vt 0.6874 0.8061
vt 0.6630 0.9333
vt 0.8544 0.8079
vt 0.7877 0.7340
vt 0.2214 0.8645
vt 0.3345 0.8071
vt 0.0367 0.4312
vt 0.1369 0.5401
vt 0.5299 0.9569
vt 0.9750 0.5143
vt 0.7848 0.1106
vt 0.5689 0.0279
vt 0.3401 0.0567
vt 0.1521 0.1880
vt 0.0466 0.3874
vt 0.1261 0.7696
vt 0.7490 0.8910
vt 0.9098 0.7304
vt 0.3041 0.9122
vn 0.0939 0.9956 0.0000
vn 0.5324 0.7294 0.4295
vn 0.6758 0.7294 -0.1057
vn 0.5838 0.5947 0.5527
vn -0.6907 0.0466 0.7216
vn 0.6934 0.0467 0.7190
vn -0.8456 0.0000 -0.5338
vn -0.8674 0.3706 -0.3320
vn -0.6758 0.7294 -0.1057
vn -0.2463 0.7294 0.6381
vn -0.0813 0.9956 0.0469
vn -0.6381 0.7294 0.2463
vn -0.5324 0.7294 0.4295
vn 0.0813 0.9956 -0.0469
vn 0.6758 0.7294 0.1057
vn 0.5324 0.7294 -0.4295
vn -0.0469 0.9956 -0.0813
vn -0.4295 0.7294 -0.5324
vn -0.2463 0.7294 -0.6381
vn 0.0813 0.9956 0.0469
vn 0.2463 0.7294 0.6381
vn 0.6381 0.7294 0.2463
vn 0.1057 0.7294 -0.6758
vn -0.7212 0.3706 -0.5852
vn 0.8674 0.3706 0.3320
vn -0.7212 0.3706 0.5852
vn -0.7574 0.5702 0.3179
vn -0.4347 0.7253 0.5338
vn 0.6381 0.7294 -0.2463
vn 0.1461 0.3706 -0.9172
vn 0.2463 0.7294 -0.6381
vn 0.9172 0.3706 0.1461
vn -0.1461 0.3706 -0.9172
vn -0.6381 0.7294 -0.2463
vn -0.2186 0.0000 0.9758
vn 0.7212 0.3706 -0.5852
vn -0.1057 0.7294 -0.6758
vn 0.4295 0.7294 -0.5324
vn 0.8674 0.3706 -0.3320
vn -0.5324 0.7294 -0.4295
vn -0.8674 0.3706 0.3320
vn -0.6758 0.7294 0.1057
vn -0.3320 0.3706 0.8674
vn 0.4347 0.7253 0.5338
vn 0.7627 0.5658 0.3132
vn -0.1056 0.9726 0.2072
vn -0.0513 0.9958 0.0750
vn -0.0939 0.9956 0.0000
vn 0.0000 0.9956 -0.0939
vn 0.0469 0.9956 -0.0813
vn 0.0513 0.9958 0.0750
vn 0.1056 0.9726 0.2069
vn 0.0000 0.9981 0.0617
vn -0.0813 0.9956 -0.0469
vn 0.0000 1.0000 0.0000
vn -0.1461 0.3706 0.9172
vn -0.5300 0.0000 -0.8480
vn 0.5338 0.0000 -0.8456
vn 0.8456 0.0000 -0.5338
vn 0.9080 0.0000 -0.4189
vn -0.3320 0.3706 -0.8674
vn -0.4548 0.0000 -0.8905
vn -0.0395 0.0000 -0.9992
vn 0.8591 0.0000 -0.5117
vn 0.4654 0.0000 -0.8851
vn 0.9992 0.0000 0.0395
vn 0.8456 0.0000 0.5338
vn 0.9992 0.0000 -0.0395
vn 0.4654 0.0000 0.8851
vn 0.8851 0.0000 0.4654
vn -0.0395 0.0000 0.9992
vn 0.0395 0.0000 0.9992
vn -0.8851 0.0000 0.4654
vn -0.4654 0.0000 0.8851
vn -0.9992 0.0000 -0.0395
vn -0.8456 0.0000 0.5338
vn -0.8851 0.0000 -0.4654
vn -0.8168 0.0000 -0.5769
vn -0.9992 0.0000 0.0395
vn -0.4654 0.0000 -0.8851
vn 0.0395 0.0000 -0.9992
vn -0.5852 0.3706 0.7212
vn -0.5769 0.0000 0.8168
vn 0.3320 0.3706 -0.8674
vn 0.8329 0.0000 -0.5533
vn 0.9172 0.3706 -0.1461
vn 0.0912 0.0000 -0.9958
vn 0.5769 0.0000 -0.8168
vn 0.5852 0.3706 -0.7212
vn 0.5852 0.3706 0.7212
vn 0.1461 0.3706 0.9172
vn 0.9958 0.0000 0.0912
vn 0.8168 0.0000 0.5769
vn 0.7212 0.3706 0.5852
vn 0.4189 0.0000 0.9080
vn 0.3320 0.3706 0.8674
vn -0.5852 0.3706 -0.7212
vn -0.9080 0.0000 0.4189
vn -0.9958 0.0000 -0.0912
vn -0.9172 0.3706 -0.1461
vn -0.0912 0.0000 0.9958
vn -0.9172 0.3706 0.1461
vn 0.2222 0.0000 0.9750
vn -0.5808 0.5954 0.5551
vn -0.9080 0.0000 -0.4189
vn 0.4189 0.0000 -0.9080
vn 0.9958 0.0000 -0.0912
vn 0.9080 0.0000 0.4189
vn 0.5769 0.0000 0.8168
vn 0.0912 0.0000 0.9958
vn -0.4189 0.0000 0.9080
vn -0.8168 0.0000 0.5769
vn -0.5769 0.0000 -0.8168
vn -0.0912 0.0000 -0.9958
vn -0.9958 0.0000 0.0912
s 1
f 99/1/1 18/2/2 16/3/3
f 115/4/4 113/5/5 112/6/6
f 37/7/7 86/8/8 38/9/9
f 32/10/10 107/11/11 34/12/12
f 86/8/8 36/13/13 38/9/9
f 100/14/14 14/15/15 12/16/16
f 110/17/17 48/18/18 46/19/19
f 103/20/20 22/21/21 20/22/22
f 2/23/23 95/24/24 48/18/18
f 62/25/25 12/16/16 14/15/15
f 34/12/12 107/11/11 36/13/13
f 78/26/26 28/27/27 30/28/28
f 10/29/29 55/30/30 8/31/31
f 22/21/21 67/32/32 20/22/22
f 94/33/33 44/34/34 46/19/19
f 113/5/5 28/27/27 27/35/35
f 54/36/36 4/37/37 6/38/38
f 18/2/2 63/39/39 16/3/3
f 42/40/40 87/41/41 40/42/42
f 74/43/43 24/44/44 26/45/45
f 98/46/46 106/47/47 30/28/28
f 36/13/13 108/48/48 38/9/9
f 2/23/23 102/49/49 4/37/37
f 110/17/17 2/23/23 48/18/18
f 101/50/50 10/29/29 8/31/31
f 38/9/9 108/48/48 40/42/42
f 22/21/21 104/51/51 24/44/44
f 102/49/49 6/38/38 4/37/37
f 104/51/51 97/52/52 24/44/44
f 98/46/46 97/52/52 105/53/53
f 14/15/15 99/1/1 16/3/3
f 18/2/2 103/20/20 20/22/22
f 109/54/54 46/19/19 44/34/34
f 42/40/40 109/54/54 44/34/34
f 10/29/29 100/14/14 12/16/16
f 99/1/1 100/14/14 111/55/55
f 107/11/11 106/47/47 111/55/55
f 110/17/17 109/54/54 111/55/55
f 106/47/47 105/53/53 111/55/55
f 100/14/14 101/50/50 111/55/55
f 105/53/53 104/51/51 111/55/55
f 109/54/54 108/48/48 111/55/55
f 101/50/50 102/49/49 111/55/55
f 104/51/51 103/20/20 111/55/55
f 108/48/48 107/11/11 111/55/55
f 102/49/49 110/17/17 111/55/55
f 103/20/20 99/1/1 111/55/55
f 40/42/42 109/54/54 42/40/40
f 30/28/28 106/47/47 32/10/10
f 34/12/12 79/56/56 32/10/10
f 2/23/23 3/57/57 1/58/58
f 15/59/59 63/39/39 64/60/60
f 3/57/57 51/61/61 52/62/62
f 6/38/38 7/63/63 5/64/64
f 10/29/29 11/65/65 9/66/66
f 14/15/15 15/59/59 13/67/67
f 18/2/2 19/68/68 17/69/69
f 22/21/21 23/70/70 21/71/71
f 30/28/28 31/72/72 29/73/73
f 34/12/12 35/74/74 33/75/75
f 38/9/9 39/76/76 37/7/7
f 47/77/77 95/24/24 96/78/78
f 42/40/40 43/79/79 41/80/80
f 46/19/19 47/77/77 45/81/81
f 35/74/74 83/82/82 84/83/83
f 50/84/84 96/78/78 95/24/24
f 51/61/61 53/85/85 52/62/62
f 58/86/86 56/87/87 55/30/30
f 62/25/25 60/88/88 59/89/89
f 66/90/90 64/60/60 63/39/39
f 70/91/91 68/92/92 67/32/32
f 74/43/43 72/93/93 71/94/94
f 78/26/26 76/95/95 75/96/96
f 86/8/8 84/83/83 83/82/82
f 90/97/97 88/98/98 87/41/41
f 94/33/33 92/99/99 91/100/100
f 27/35/35 75/96/96 76/95/95
f 39/76/76 87/41/41 88/98/98
f 7/63/63 55/30/30 56/87/87
f 19/68/68 67/32/32 68/92/92
f 31/72/72 79/56/56 80/101/101
f 43/79/79 91/100/100 92/99/99
f 11/65/65 59/89/89 60/88/88
f 23/70/70 71/94/94 72/93/93
f 82/102/102 80/101/101 79/56/56
f 6/38/38 101/50/50 8/31/31
f 25/103/103 74/43/43 26/45/45
f 13/67/67 62/25/25 14/15/15
f 1/58/58 50/84/84 2/23/23
f 5/64/64 54/36/36 6/38/38
f 17/69/69 66/90/90 18/2/2
f 29/73/73 78/26/26 30/28/28
f 41/80/80 90/97/97 42/40/40
f 9/66/66 58/86/86 10/29/29
f 21/71/71 70/91/91 22/21/21
f 33/75/75 82/102/102 34/12/12
f 45/81/81 94/33/33 46/19/19
f 97/52/52 115/4/4 26/45/45
f 26/45/45 112/6/6 25/103/103
f 97/52/52 114/104/104 115/4/4
f 28/27/27 114/104/104 98/46/46
f 99/1/1 103/20/20 18/2/2
f 115/4/4 114/104/104 113/5/5
f 37/7/7 85/105/105 86/8/8
f 32/10/10 106/47/47 107/11/11
f 86/8/8 83/82/82 36/13/13
f 100/14/14 99/1/1 14/15/15
f 103/20/20 104/51/51 22/21/21
f 2/23/23 50/84/84 95/24/24
f 62/25/25 59/89/89 12/16/16
f 78/26/26 75/96/96 28/27/27
f 10/29/29 58/86/86 55/30/30
f 22/21/21 70/91/91 67/32/32
f 94/33/33 91/100/100 44/34/34
f 113/5/5 114/104/104 28/27/27
f 54/36/36 51/61/61 4/37/37
f 18/2/2 66/90/90 63/39/39
f 42/40/40 90/97/97 87/41/41
f 74/43/43 71/94/94 24/44/44
f 30/28/28 28/27/27 98/46/46
f 98/46/46 105/53/53 106/47/47
f 36/13/13 107/11/11 108/48/48
f 110/17/17 102/49/49 2/23/23
f 101/50/50 100/14/14 10/29/29
f 102/49/49 101/50/50 6/38/38
f 26/45/45 24/44/44 97/52/52
f 104/51/51 105/53/53 97/52/52
f 109/54/54 110/17/17 46/19/19
f 40/42/42 108/48/48 109/54/54
f 34/12/12 82/102/102 79/56/56
f 2/23/23 4/37/37 3/57/57
f 15/59/59 16/3/3 63/39/39
f 3/57/57 4/37/37 51/61/61
f 6/38/38 8/31/31 7/63/63
f 10/29/29 12/16/16 11/65/65
f 14/15/15 16/3/3 15/59/59
f 18/2/2 20/22/22 19/68/68
f 22/21/21 24/44/44 23/70/70
f 30/28/28 32/10/10 31/72/72
f 34/12/12 36/13/13 35/74/74
f 38/9/9 40/42/42 39/76/76
f 47/77/77 48/18/18 95/24/24
f 42/40/40 44/34/34 43/79/79
f 46/19/19 48/18/18 47/77/77
f 35/74/74 36/13/13 83/82/82
f 50/84/84 49/106/106 96/78/78
f 51/61/61 54/36/36 53/85/85
f 58/86/86 57/107/107 56/87/87
f 62/25/25 61/108/108 60/88/88
f 66/90/90 65/109/109 64/60/60
f 70/91/91 69/110/110 68/92/92
f 74/43/43 73/111/111 72/93/93
f 78/26/26 77/112/112 76/95/95
f 86/8/8 85/105/105 84/83/83
f 90/97/97 89/113/113 88/98/98
f 94/33/33 93/114/114 92/99/99
f 27/35/35 28/27/27 75/96/96
f 39/76/76 40/42/42 87/41/41
f 7/63/63 8/31/31 55/30/30
f 19/68/68 20/22/22 67/32/32
f 31/72/72 32/10/10 79/56/56
f 43/79/79 44/34/34 91/100/100
f 11/65/65 12/16/16 59/89/89
f 23/70/70 24/44/44 71/94/94
f 82/102/102 81/115/115 80/101/101
f 25/103/103 73/111/111 74/43/43
f 13/67/67 61/108/108 62/25/25
f 1/58/58 49/106/106 50/84/84
f 5/64/64 53/85/85 54/36/36
f 17/69/69 65/109/109 66/90/90
f 29/73/73 77/112/112 78/26/26
f 41/80/80 89/113/113 90/97/97
f 9/66/66 57/107/107 58/86/86
f 21/71/71 69/110/110 70/91/91
f 33/75/75 81/115/115 82/102/102
f 45/81/81 93/114/114 94/33/33
f 26/45/45 115/4/4 112/6/6
f 97/52/52 98/46/46 114/104/104
