# Blender v2.78 (sub 0) OBJ File: 'Switch_3.blend'
# www.blender.org
o LR_base_Cylinder.005
v -0.000000 -2.355078 -1.421263
v -0.000000 -2.143427 -1.382115
v 0.543894 -2.355078 -1.313075
v 0.528912 -2.143427 -1.276907
v 1.004984 -2.355078 -1.004984
v 0.977303 -2.143427 -0.977303
v 1.313075 -2.355078 -0.543894
v 1.276907 -2.143427 -0.528912
v 1.421263 -2.355078 0.000000
v 1.382115 -2.143427 0.000000
v 1.313075 -2.355078 0.543894
v 1.276907 -2.143427 0.528912
v 1.004984 -2.355078 1.004984
v 0.977303 -2.143427 0.977303
v 0.543894 -2.355078 1.313075
v 0.528912 -2.143427 1.276907
v 0.000000 -2.355078 1.421263
v 0.000000 -2.143427 1.382115
v -0.543893 -2.355078 1.313076
v -0.528912 -2.143427 1.276908
v -1.004984 -2.355078 1.004985
v -0.977303 -2.143427 0.977303
v -1.313075 -2.355078 0.543894
v -1.276907 -2.143427 0.528913
v -1.421263 -2.355078 -0.000000
v -1.382115 -2.143427 -0.000000
v -1.313075 -2.355078 -0.543894
v -1.276907 -2.143427 -0.528913
v -1.004984 -2.355078 -1.004985
v -0.977302 -2.143427 -0.977303
v -0.543893 -2.355078 -1.313076
v -0.528912 -2.143427 -1.276908
v -0.000000 -2.125593 -1.156689
v 0.442646 -2.125593 -1.068641
v 0.817902 -2.125593 -0.817902
v 1.068641 -2.125593 -0.442645
v 1.156689 -2.125593 0.000000
v 1.068641 -2.125593 0.442646
v 0.817902 -2.125593 0.817902
v 0.442646 -2.125593 1.068641
v 0.000000 -2.125593 1.156689
v -0.442645 -2.125593 1.068641
v -0.817902 -2.125593 0.817903
v -1.068641 -2.125593 0.442646
v -1.156689 -2.125593 -0.000000
v -1.068641 -2.125593 -0.442646
v -0.817902 -2.125593 -0.817903
v -0.442645 -2.125593 -1.068641
v -0.000000 -2.322939 -1.024304
v 0.391984 -2.322939 -0.946334
v 0.724293 -2.322939 -0.724293
v 0.946334 -2.322939 -0.391984
v 1.024304 -2.322939 0.000000
v 0.946334 -2.322939 0.391984
v 0.724293 -2.322939 0.724293
v 0.391984 -2.322939 0.946334
v 0.000000 -2.322939 1.024304
v -0.391984 -2.322939 0.946334
v -0.724292 -2.322939 0.724293
v -0.946334 -2.322939 0.391984
v -1.024304 -2.322939 -0.000000
v -0.946334 -2.322939 -0.391985
v -0.724292 -2.322939 -0.724293
v -0.391984 -2.322939 -0.946334
v -0.000000 -2.408205 -2.110490
v 0.807650 -2.408205 -1.949839
v 1.492342 -2.408205 -1.492342
v 1.949839 -2.408205 -0.807650
v 2.110491 -2.408205 0.000000
v 1.949839 -2.408205 0.807650
v 1.492342 -2.408205 1.492342
v 0.807650 -2.408205 1.949839
v 0.000000 -2.408205 2.110491
v -0.807649 -2.408205 1.949840
v -1.492342 -2.408205 1.492343
v -1.949839 -2.408205 0.807650
v -2.110491 -2.408205 -0.000000
v -1.949839 -2.408205 -0.807650
v -1.492342 -2.408205 -1.492342
v -0.807649 -2.408205 -1.949839
v -0.000000 -2.796103 -2.133839
v 0.816585 -2.796103 -1.971410
v 1.508852 -2.796103 -1.508852
v 1.971410 -2.796103 -0.816585
v 2.133839 -2.796103 0.000000
v 1.971410 -2.796103 0.816585
v 1.508852 -2.796103 1.508852
v 0.816585 -2.796103 1.971410
v 0.000000 -2.796103 2.133839
v -0.816585 -2.796103 1.971411
v -1.508852 -2.796103 1.508853
v -1.971410 -2.796103 0.816585
v -2.133839 -2.796103 -0.000000
v -1.971410 -2.796103 -0.816585
v -1.508852 -2.796103 -1.508853
v -0.816584 -2.796103 -1.971411
vt 0.3060 0.6549
vt 0.3651 0.7117
vt 0.2888 0.6803
vt 0.4422 0.6814
vt 0.4478 0.7118
vt 0.5080 0.6547
vt 0.5246 0.6808
vt 0.5591 0.6052
vt 0.5843 0.6231
vt 0.6175 0.5469
vt 0.5873 0.5400
vt 0.6188 0.4635
vt 0.5882 0.4689
vt 0.5877 0.3858
vt 0.5614 0.4026
vt 0.5289 0.3260
vt 0.4448 0.3240
vt 0.4513 0.2933
vt 0.3671 0.2931
vt 0.3064 0.3514
vt 0.2893 0.3251
vt 0.2299 0.3846
vt 0.2557 0.4022
vt 0.1980 0.4620
vt 0.2285 0.4683
vt 0.1982 0.5454
vt 0.5587 0.4745
vt 0.5363 0.4193
vt 0.2559 0.6051
vt 0.2301 0.6220
vt 0.2808 0.4189
vt 0.5345 0.5883
vt 0.5581 0.5339
vt 0.3788 0.3536
vt 0.3729 0.3239
vt 0.2286 0.5396
vt 0.2806 0.5885
vt 0.4363 0.6521
vt 0.4916 0.6295
vt 0.4942 0.3768
vt 0.5111 0.3517
vt 0.2579 0.4741
vt 0.3714 0.6816
vt 0.3224 0.6301
vt 0.3770 0.6524
vt 0.3233 0.3765
vt 0.4388 0.3537
vt 0.2579 0.5337
vt 0.4331 0.3836
vt 0.3849 0.3834
vt 0.4751 0.6041
vt 0.3404 0.4016
vt 0.5097 0.5715
vt 0.3062 0.4355
vt 0.5286 0.5280
vt 0.2876 0.4797
vt 0.5292 0.4804
vt 0.2874 0.5275
vt 0.5112 0.4362
vt 0.3052 0.5715
vt 0.4775 0.4021
vt 0.3824 0.6229
vt 0.3385 0.6050
vt 0.4301 0.6225
vt 0.5805 0.7664
vt 0.4719 0.1916
vt 0.5869 0.2402
vt 0.0968 0.4424
vt 0.3454 0.8116
vt 0.7200 0.4446
vt 0.2315 0.2391
vt 0.6686 0.6812
vt 0.3469 0.1912
vt 0.0977 0.5660
vt 0.4673 0.8120
vt 0.6741 0.3292
vt 0.2326 0.7653
vt 0.1437 0.3275
vt 0.7179 0.5683
vt 0.1455 0.6793
vt 0.4807 0.8759
vt 0.3338 0.8759
vt 0.4842 0.1257
vt 0.6171 0.8208
vt 0.3328 0.1257
vt 0.1933 0.1841
vt 0.7233 0.7179
vt 0.0874 0.2916
vt 0.7853 0.4317
vt 0.7828 0.5814
vt 0.0313 0.4310
vt 0.7296 0.2919
vt 0.0331 0.5805
vt 0.6237 0.1842
vt 0.1974 0.8205
vt 0.0917 0.7171
vn 0.0000 0.7068 -0.7074
vn 0.2381 0.7829 -0.5748
vn 0.0000 0.7829 -0.6222
vn 0.5002 0.7068 -0.5002
vn 0.4399 0.7829 -0.4399
vn 0.6535 0.7068 -0.2707
vn 0.5748 0.7829 -0.2381
vn 0.7074 0.7068 0.0000
vn 0.6222 0.7829 0.0000
vn 0.5748 0.7829 0.2381
vn 0.6535 0.7068 0.2707
vn 0.4399 0.7829 0.4399
vn 0.5002 0.7068 0.5002
vn 0.2381 0.7829 0.5748
vn 0.2707 0.7068 0.6535
vn 0.0000 0.7829 0.6222
vn -0.2707 0.7068 0.6535
vn -0.2381 0.7829 0.5748
vn -0.4399 0.7829 0.4399
vn -0.6535 0.7068 0.2707
vn -0.5748 0.7829 0.2381
vn -0.6222 0.7829 0.0000
vn -0.7074 0.7068 0.0000
vn -0.5748 0.7829 -0.2381
vn -0.6535 0.7068 -0.2707
vn -0.4399 0.7829 -0.4399
vn -0.2698 0.9243 -0.2698
vn -0.1460 0.9243 -0.3525
vn -0.2707 0.7068 -0.6535
vn -0.2381 0.7829 -0.5748
vn 0.3815 0.9243 0.0000
vn -0.3815 0.9243 0.0000
vn -0.3525 0.9243 -0.1460
vn 0.2698 0.9243 -0.2698
vn -0.5002 0.7068 0.5002
vn -0.5002 0.7068 -0.5002
vn 0.1460 0.9243 0.3525
vn -0.2698 0.9243 0.2698
vn -0.3525 0.9243 0.1460
vn 0.0000 0.9243 -0.3815
vn 0.0000 0.7068 0.7074
vn 0.3525 0.9243 0.1460
vn 0.2707 0.7068 -0.6535
vn 0.0000 0.9243 0.3815
vn -0.1460 0.9243 0.3525
vn 0.3525 0.9243 -0.1460
vn 0.1460 0.9243 -0.3525
vn 0.2698 0.9243 0.2698
vn 0.3178 0.5571 -0.7672
vn 0.5872 0.5571 -0.5872
vn -0.7672 0.5571 0.3178
vn 0.7672 0.5571 -0.3178
vn -0.8304 0.5571 0.0000
vn 0.8304 0.5571 0.0000
vn -0.7672 0.5571 -0.3178
vn 0.7672 0.5571 0.3178
vn -0.5872 0.5571 -0.5872
vn 0.5872 0.5571 0.5872
vn -0.3178 0.5571 -0.7672
vn 0.3178 0.5571 0.7672
vn 0.0000 0.5571 -0.8304
vn -0.3178 0.5571 0.7672
vn 0.0000 0.5571 0.8304
vn -0.5872 0.5571 0.5872
vn 0.6920 0.6626 -0.2866
vn -0.2866 0.6626 0.6920
vn 0.0000 0.6626 0.7490
vn -0.6920 0.6626 -0.2866
vn 0.2866 0.6626 -0.6920
vn 0.5296 0.6626 0.5296
vn -0.6920 0.6626 0.2866
vn 0.7490 0.6626 0.0000
vn -0.5296 0.6626 0.5296
vn -0.5296 0.6626 -0.5296
vn 0.5296 0.6626 -0.5296
vn 0.2866 0.6626 0.6920
vn 0.0000 0.6626 -0.7490
vn -0.7490 0.6626 0.0000
vn 0.6920 0.6626 0.2866
vn -0.2866 0.6626 -0.6920
vn 0.7058 0.0601 -0.7058
vn 0.3820 0.0601 -0.9222
vn -0.3820 0.0601 0.9222
vn 0.9222 0.0601 -0.3820
vn -0.7058 0.0601 0.7058
vn -0.9222 0.0601 0.3820
vn 0.9982 0.0601 0.0000
vn -0.9982 0.0601 0.0000
vn 0.7058 0.0601 0.7058
vn 0.9222 0.0601 0.3820
vn -0.9222 0.0601 -0.3820
vn 0.3820 0.0601 0.9222
vn -0.7058 0.0601 -0.7058
vn 0.0000 0.0601 0.9982
vn 0.0000 0.0601 -0.9982
vn -0.3820 0.0601 -0.9222
s 1
f 2/1/1 3/2/2 1/3/3
f 3/2/2 6/4/4 5/5/5
f 5/5/5 8/6/6 7/7/7
f 7/7/7 10/8/8 9/9/9
f 10/8/8 11/10/10 9/9/9
f 12/11/11 13/12/12 11/10/10
f 14/13/13 15/14/14 13/12/12
f 16/15/15 17/16/16 15/14/14
f 17/16/16 20/17/17 19/18/18
f 20/17/17 21/19/19 19/18/18
f 21/19/19 24/20/20 23/21/21
f 24/20/20 25/22/22 23/21/21
f 26/23/23 27/24/24 25/22/22
f 28/25/25 29/26/26 27/24/24
f 16/15/15 39/27/27 40/28/28
f 29/26/26 32/29/29 31/30/30
f 31/30/30 2/1/1 1/3/3
f 24/20/20 45/31/31 26/23/23
f 12/11/11 37/32/32 38/33/33
f 20/17/17 43/34/34 22/35/35
f 30/36/36 48/37/37 32/29/29
f 8/6/6 35/38/38 36/39/39
f 16/15/15 41/40/40 18/41/41
f 28/25/25 45/31/31 46/42/42
f 4/43/43 33/44/44 34/45/45
f 12/11/11 39/27/27 14/13/13
f 22/35/35 44/46/46 24/20/20
f 32/29/29 33/44/44 2/1/1
f 8/6/6 37/32/32 10/8/8
f 18/41/41 42/47/47 20/17/17
f 28/25/25 47/48/48 30/36/36
f 4/43/43 35/38/38 6/4/4
f 43/34/34 58/49/49 59/50/50
f 35/38/38 52/51/51 36/39/39
f 44/46/46 59/50/50 60/52/52
f 36/39/39 53/53/53 37/32/32
f 45/31/31 60/52/52 61/54/54
f 38/33/33 53/53/53 54/55/55
f 45/31/31 62/56/56 46/42/42
f 38/33/33 55/57/57 39/27/27
f 47/48/48 62/56/56 63/58/58
f 39/27/27 56/59/59 40/28/28
f 48/37/37 63/58/58 64/60/60
f 40/28/28 57/61/61 41/40/40
f 33/44/44 50/62/62 34/45/45
f 48/37/37 49/63/63 33/44/44
f 41/40/40 58/49/49 42/47/47
f 35/38/38 50/62/62 51/64/64
f 9/9/9 68/65/65 7/7/7
f 17/16/16 74/66/66 73/67/67
f 29/26/26 78/68/68 27/24/24
f 5/5/5 66/69/69 3/2/2
f 15/14/14 71/70/70 13/12/12
f 25/22/22 76/71/71 23/21/21
f 11/10/10 69/72/72 9/9/9
f 19/18/18 75/73/73 74/66/66
f 31/30/30 79/74/74 29/26/26
f 7/7/7 67/75/75 5/5/5
f 17/16/16 72/76/76 15/14/14
f 1/3/3 66/69/69 65/77/77
f 27/24/24 77/78/78 25/22/22
f 13/12/12 70/79/79 11/10/10
f 21/19/19 76/71/71 75/73/73
f 31/30/30 65/77/77 80/80/80
f 66/69/69 83/81/81 82/82/82
f 75/73/73 90/83/83 74/66/66
f 67/75/75 84/84/84 83/81/81
f 76/71/71 91/85/85 75/73/73
f 69/72/72 84/84/84 68/65/65
f 77/78/78 92/86/86 76/71/71
f 70/79/79 85/87/87 69/72/72
f 78/68/68 93/88/88 77/78/78
f 70/79/79 87/89/89 86/90/90
f 79/74/74 94/91/91 78/68/68
f 71/70/70 88/92/92 87/89/89
f 80/80/80 95/93/93 79/74/74
f 72/76/76 89/94/94 88/92/92
f 66/69/69 81/95/95 65/77/77
f 65/77/77 96/96/96 80/80/80
f 74/66/66 89/94/94 73/67/67
f 2/1/1 4/43/43 3/2/2
f 3/2/2 4/43/43 6/4/4
f 5/5/5 6/4/4 8/6/6
f 7/7/7 8/6/6 10/8/8
f 10/8/8 12/11/11 11/10/10
f 12/11/11 14/13/13 13/12/12
f 14/13/13 16/15/15 15/14/14
f 16/15/15 18/41/41 17/16/16
f 17/16/16 18/41/41 20/17/17
f 20/17/17 22/35/35 21/19/19
f 21/19/19 22/35/35 24/20/20
f 24/20/20 26/23/23 25/22/22
f 26/23/23 28/25/25 27/24/24
f 28/25/25 30/36/36 29/26/26
f 16/15/15 14/13/13 39/27/27
f 29/26/26 30/36/36 32/29/29
f 31/30/30 32/29/29 2/1/1
f 24/20/20 44/46/46 45/31/31
f 12/11/11 10/8/8 37/32/32
f 20/17/17 42/47/47 43/34/34
f 30/36/36 47/48/48 48/37/37
f 8/6/6 6/4/4 35/38/38
f 16/15/15 40/28/28 41/40/40
f 28/25/25 26/23/23 45/31/31
f 4/43/43 2/1/1 33/44/44
f 12/11/11 38/33/33 39/27/27
f 22/35/35 43/34/34 44/46/46
f 32/29/29 48/37/37 33/44/44
f 8/6/6 36/39/39 37/32/32
f 18/41/41 41/40/40 42/47/47
f 28/25/25 46/42/42 47/48/48
f 4/43/43 34/45/45 35/38/38
f 43/34/34 42/47/47 58/49/49
f 35/38/38 51/64/64 52/51/51
f 44/46/46 43/34/34 59/50/50
f 36/39/39 52/51/51 53/53/53
f 45/31/31 44/46/46 60/52/52
f 38/33/33 37/32/32 53/53/53
f 45/31/31 61/54/54 62/56/56
f 38/33/33 54/55/55 55/57/57
f 47/48/48 46/42/42 62/56/56
f 39/27/27 55/57/57 56/59/59
f 48/37/37 47/48/48 63/58/58
f 40/28/28 56/59/59 57/61/61
f 33/44/44 49/63/63 50/62/62
f 48/37/37 64/60/60 49/63/63
f 41/40/40 57/61/61 58/49/49
f 35/38/38 34/45/45 50/62/62
f 9/9/9 69/72/72 68/65/65
f 17/16/16 19/18/18 74/66/66
f 29/26/26 79/74/74 78/68/68
f 5/5/5 67/75/75 66/69/69
f 15/14/14 72/76/76 71/70/70
f 25/22/22 77/78/78 76/71/71
f 11/10/10 70/79/79 69/72/72
f 19/18/18 21/19/19 75/73/73
f 31/30/30 80/80/80 79/74/74
f 7/7/7 68/65/65 67/75/75
f 17/16/16 73/67/67 72/76/76
f 1/3/3 3/2/2 66/69/69
f 27/24/24 78/68/68 77/78/78
f 13/12/12 71/70/70 70/79/79
f 21/19/19 23/21/21 76/71/71
f 31/30/30 1/3/3 65/77/77
f 66/69/69 67/75/75 83/81/81
f 75/73/73 91/85/85 90/83/83
f 67/75/75 68/65/65 84/84/84
f 76/71/71 92/86/86 91/85/85
f 69/72/72 85/87/87 84/84/84
f 77/78/78 93/88/88 92/86/86
f 70/79/79 86/90/90 85/87/87
f 78/68/68 94/91/91 93/88/88
f 70/79/79 71/70/70 87/89/89
f 79/74/74 95/93/93 94/91/91
f 71/70/70 72/76/76 88/92/92
f 80/80/80 96/96/96 95/93/93
f 72/76/76 73/67/67 89/94/94
f 66/69/69 82/82/82 81/95/95
f 65/77/77 81/95/95 96/96/96
f 74/66/66 90/83/83 89/94/94
